<?xml version="1.0" encoding="UTF-8"?>
<svg id="Layer_1" xmlns="http://www.w3.org/2000/svg" version="1.1" viewBox="0 0 612 792">
  <!-- Generator: Adobe Illustrator 30.1.0, SVG Export Plug-In . SVG Version: 2.1.1 Build 136)  -->
  <defs>
    <style>
      .st0 {
        fill-rule: evenodd;
      }

      .st0, .st1 {
        fill: #fff;
      }
    </style>
  </defs>
  <path class="st0" d="M514.76,407.67c-2.16,1.3-4.33,2.74-5.46,3.52-3.51,2.44-7.06,5.02-10.6,7.7-15.64,11.85-31.12,25.74-42.96,39.05h-28.24s69.11-59.65,100.84-64.22c28.27-4.07,39.24,16.37,36.91,38.39.29-2.7.24-5.45-.17-7.9-.99-5.89-3.51-10.73-6.95-14.49-2.79-3.05-6.25-5.75-10.89-7.5-4-1.51-8.32-2.2-12.96-1.77,0,0-8.13.33-19.52,7.21"/>
  <path class="st0" d="M410.22,407.67c2.16,1.3,4.33,2.74,5.46,3.52,3.51,2.44,7.06,5.02,10.6,7.7,15.64,11.85,31.13,25.74,42.96,39.05h28.23s-69.11-59.65-100.84-64.22c-28.28-4.07-39.24,16.37-36.91,38.39-.29-2.7-.25-5.45.16-7.9,1-5.89,3.51-10.73,6.95-14.49,2.79-3.05,6.25-5.75,10.89-7.5,3.99-1.51,8.32-2.2,12.96-1.77,0,0,8.13.33,19.52,7.21"/>
  <polygon class="st1" points="403.86 422.51 394.23 412.87 385.77 421.34 377.3 412.87 367.67 422.51 377.3 432.14 385.77 423.67 394.23 432.14 403.86 422.51"/>
  <path class="st1" d="M506.66,350.8c-.74-1.71-1.63-3.4-2.67-5.02-8.73-13.53-25.41-18.83-39.98-13.73-.85-3.13-1.52-4.95-1.52-4.95,0,0-.68,1.82-1.53,4.95-14.56-5.1-31.24.2-39.98,13.73-1.04,1.62-1.94,3.3-2.67,5.02,6.14-6.75,14.6-10.58,23.34-11.08-8.11,6.25-13.34,16.06-13.34,27.09,0,1.93.16,3.83.47,5.67,1.67-9.97,7.67-18.48,15.98-23.54-5.25,10.46-5.01,23.37,1.8,33.92,1.05,1.62,2.22,3.12,3.48,4.51-5.68-13.13-2.51-28.49,7.85-38.3-.23,2.54-.38,5.22-.38,7.98,0,16.54,4.98,29.94,4.98,29.94,0,0,4.97-13.4,4.97-29.94,0-2.76-.14-5.44-.37-7.98,10.36,9.81,13.53,25.17,7.85,38.3,1.27-1.38,2.43-2.88,3.47-4.51,6.81-10.55,7.06-23.46,1.8-33.92,8.32,5.06,14.32,13.57,15.98,23.54.31-1.84.47-3.73.47-5.67,0-11.03-5.23-20.84-13.34-27.09,8.75.5,17.2,4.33,23.35,11.08"/>
  <path class="st0" d="M427.89,407.02s24.58-35.46,67.77,10.54c40.68,43.32,55.94,36.02,67.51,22.26,0,0-.62,1.68-1.66,3.31-.8,1.26-1.27,1.98-1.44,2.2-5.75,7.72-13.96,12.52-24.07,12.62-12.95.13-29.02-7.64-47.01-27.52-40.04-44.24-61.1-23.4-61.1-23.4"/>
  <path class="st1" d="M58.72,452.4h-.18l-9.03-17.81h-3.98v23.21h1.72v-18.88h.27l9.63,18.88h.8l9.52-19.01h.13v19.01h3.92v-23.21h-3.92l-8.86,17.81ZM76.66,440.55v17.24h3.53v-18.26h-1.03l-2.5,1.02ZM79.84,431.26c-.18-.16-.4-.29-.65-.38-.25-.1-.51-.14-.79-.14s-.54.04-.78.14c-.24.09-.46.22-.64.38-.18.16-.33.35-.44.56-.11.22-.17.45-.17.69s.05.48.17.69c.11.22.26.4.44.57.18.16.4.29.64.38.25.09.51.14.78.14s.54-.05.79-.14c.25-.09.47-.22.65-.38.18-.16.33-.35.44-.57.11-.22.17-.45.17-.69s-.05-.47-.17-.69c-.11-.21-.26-.4-.44-.56M98.2,441.12c-.4-.49-.88-.88-1.43-1.16-.55-.28-1.14-.43-1.76-.43-1.21,0-2.4.3-3.57.91-1.17.6-2.29,1.52-3.37,2.72v-3.27h-3.55v17.89h3.55v-13.26c.4-.39.82-.74,1.25-1.05.43-.32.87-.59,1.3-.82.43-.23.86-.4,1.28-.52.42-.12.82-.18,1.2-.18.84,0,1.52.3,2.05.91.53.61.8,1.51.8,2.68v12.24h3.56v-12.85c0-.74-.12-1.45-.36-2.11-.24-.66-.56-1.24-.97-1.73M106.95,431.26c-.19-.16-.4-.29-.65-.38-.25-.1-.52-.14-.79-.14s-.54.04-.78.14c-.24.09-.46.22-.64.38-.19.16-.33.35-.44.56-.11.22-.17.45-.17.69s.06.48.17.69c.11.22.26.4.44.57.18.16.4.29.64.38.25.09.51.14.78.14s.54-.05.79-.14c.25-.09.46-.22.65-.38.18-.16.33-.35.44-.57.11-.22.17-.45.17-.69s-.06-.47-.17-.69c-.11-.21-.26-.4-.44-.56M103.78,440.55v17.24h3.53v-18.26h-1.03l-2.5,1.02ZM122.57,449.34c-.49-.43-1.04-.8-1.67-1.12-.62-.32-1.26-.63-1.91-.91-.65-.29-1.3-.56-1.92-.83-.62-.27-1.18-.57-1.67-.89-.49-.32-.88-.68-1.18-1.08-.3-.4-.45-.87-.45-1.4,0-.32.08-.63.25-.92.16-.29.39-.54.69-.76.3-.22.66-.38,1.09-.51.42-.13.88-.19,1.38-.19.96,0,1.85.27,2.69.81.84.54,1.59,1.38,2.27,2.48l1.3-1.17c-.53-.7-1.04-1.26-1.54-1.7-.5-.43-.99-.77-1.49-1.01-.49-.24-1-.4-1.52-.48-.52-.08-1.08-.12-1.67-.12-.89,0-1.71.12-2.46.37-.75.25-1.4.6-1.93,1.05-.54.44-.96.97-1.27,1.58-.3.61-.46,1.28-.46,2,0,.77.14,1.43.41,1.99.27.56.63,1.06,1.08,1.48.45.43.97.81,1.54,1.13.58.33,1.16.63,1.76.92.59.28,1.18.56,1.76.82.58.27,1.09.56,1.54.89.45.33.81.7,1.08,1.1.27.41.41.88.41,1.43,0,.34-.08.66-.25.98-.17.32-.4.6-.69.85-.29.24-.65.44-1.06.59-.41.15-.86.23-1.35.23s-.98-.07-1.43-.19c-.44-.13-.86-.33-1.27-.6-.41-.28-.81-.62-1.21-1.05-.4-.43-.81-.95-1.25-1.56l-1.45,1.32c.53.7,1.08,1.27,1.64,1.7.56.43,1.12.77,1.69,1,.56.24,1.11.4,1.67.48.55.09,1.09.13,1.61.13,1.15,0,2.15-.14,3.01-.42.86-.27,1.57-.65,2.14-1.14.57-.48.99-1.06,1.27-1.72.29-.66.43-1.37.43-2.12s-.15-1.4-.45-1.96c-.3-.56-.69-1.05-1.18-1.48M135.58,455.64c-.33.2-.69.29-1.09.29-.27,0-.52-.05-.76-.15-.24-.1-.45-.24-.62-.41-.18-.17-.31-.37-.41-.61-.1-.23-.15-.48-.15-.75v-12.62h4.01v-1.5h-4.01v-6.12h-1.02c-.18.91-.38,1.77-.62,2.58-.23.81-.55,1.53-.96,2.14-.41.62-.94,1.1-1.58,1.47-.64.36-1.47.54-2.47.54v.88h3.1v12.62c0,.62.07,1.19.21,1.7.14.51.35.95.64,1.32.29.36.65.65,1.09.85.44.2.96.3,1.56.3,1.16,0,2.13-.24,2.92-.72.79-.47,1.42-1.13,1.9-1.95l-.88-.6c-.25.29-.53.53-.86.72M150.08,440.18c-.25-.19-.54-.35-.87-.47-.33-.11-.69-.17-1.08-.17-.48,0-.95.1-1.41.3-.46.2-.91.47-1.34.82-.43.34-.85.75-1.25,1.2-.4.46-.77.93-1.12,1.43v-3.38h-3.53v17.89h3.53v-12.39c.24-.4.49-.77.73-1.11.24-.34.48-.63.72-.88.24-.25.48-.44.72-.58.24-.14.48-.21.71-.21.3,0,.55.04.75.12.2.08.4.18.59.28.19.11.41.2.65.29.24.08.56.12.96.12.64,0,1.15-.14,1.51-.44.36-.29.54-.73.54-1.31,0-.29-.07-.56-.22-.82-.14-.26-.34-.49-.59-.68M162.33,452.83l-6.92-12.91h-4.05l9.16,17.04-1.2,2.68c-.14.32-.3.67-.48,1.05-.18.38-.38.73-.62,1.04-.23.32-.5.58-.78.79-.29.22-.62.32-.98.32-.34,0-.62-.04-.81-.12-.2-.08-.39-.18-.57-.28-.18-.11-.37-.2-.59-.28-.21-.08-.51-.12-.89-.12-.32,0-.61.05-.88.16-.26.11-.48.26-.66.43-.18.18-.33.39-.43.63-.1.24-.15.48-.15.73,0,.3.08.58.23.83.15.25.35.47.62.66.26.19.57.33.91.42.35.1.72.15,1.11.15.56,0,1.14-.1,1.73-.31.59-.21,1.17-.52,1.73-.94.56-.42,1.09-.95,1.59-1.59.5-.65.94-1.41,1.33-2.28l9.13-21.01h-1.9l-5.63,12.91ZM197.58,442.09c-.85-.79-1.84-1.42-3-1.87-1.15-.46-2.41-.68-3.77-.68s-2.63.25-3.79.75c-1.16.5-2.16,1.18-3,2.04-.84.86-1.5,1.87-1.97,3.03-.47,1.16-.71,2.41-.71,3.72s.24,2.44.71,3.54c.47,1.11,1.13,2.07,1.97,2.89.84.83,1.84,1.48,3,1.95,1.16.48,2.42.72,3.79.72s2.62-.26,3.77-.78c1.15-.52,2.15-1.22,3-2.11.84-.89,1.5-1.94,1.97-3.13.47-1.2.71-2.47.71-3.83,0-1.22-.24-2.37-.71-3.44-.47-1.07-1.13-2-1.97-2.8M195.91,452.75c-.23.81-.56,1.52-.99,2.13-.43.6-.93,1.09-1.51,1.45-.59.36-1.23.54-1.93.54-.97,0-1.83-.25-2.6-.74-.76-.49-1.41-1.17-1.93-2.02-.52-.85-.92-1.85-1.2-2.99-.28-1.15-.42-2.37-.42-3.67,0-.9.13-1.75.38-2.55.26-.8.6-1.5,1.02-2.1.43-.6.92-1.07,1.48-1.42.55-.34,1.13-.52,1.73-.52,1.17,0,2.15.24,2.95.73.8.48,1.45,1.15,1.95,1.99.5.84.86,1.83,1.08,2.95.22,1.13.33,2.34.33,3.64,0,.9-.12,1.76-.35,2.57M216.17,431.63c-.42-.27-.94-.49-1.56-.65-.62-.16-1.32-.24-2.11-.24-.92,0-1.79.18-2.6.55-.81.37-1.52.87-2.12,1.51-.6.64-1.08,1.39-1.43,2.25-.35.86-.53,1.78-.53,2.76v2.1h-3.75v1.5h3.75v16.4h3.57v-16.4h4.78v-1.5h-4.78v-4.25c0-.46.06-.9.18-1.33.12-.44.29-.82.51-1.15.21-.33.48-.6.78-.81.31-.21.64-.31.99-.31.47,0,.83.09,1.07.25.25.17.44.38.58.64.13.26.23.53.31.82.07.3.17.57.29.83.12.25.3.47.53.63.23.17.56.25.99.25.24,0,.48-.04.7-.11.22-.08.42-.19.58-.33.17-.15.3-.32.4-.53.1-.2.15-.44.15-.71,0-.42-.11-.82-.33-1.19-.22-.37-.55-.7-.97-.97M243.5,445.16h-11.66v-10.58h-3.9v23.21h3.9v-11.13h11.66v11.13h3.9v-23.21h-3.9v10.58ZM266.94,452.71c-.41.53-.9.99-1.48,1.4-.58.41-1.22.73-1.94.98-.71.25-1.45.37-2.23.37-.92,0-1.77-.21-2.55-.63-.78-.42-1.45-1-2-1.75-.55-.74-.99-1.63-1.3-2.66-.31-1.03-.47-2.14-.47-3.34h13.35c0-1-.19-1.95-.58-2.86-.39-.91-.93-1.72-1.63-2.41-.7-.69-1.54-1.25-2.52-1.66-.98-.41-2.05-.61-3.23-.61-1.32,0-2.52.25-3.61.75-1.08.5-2.01,1.19-2.78,2.08-.77.89-1.36,1.95-1.78,3.17-.42,1.22-.63,2.55-.63,3.98,0,1.2.23,2.32.69,3.37.46,1.05,1.09,1.97,1.88,2.75.79.79,1.72,1.4,2.78,1.86,1.06.46,2.2.69,3.41.69.92,0,1.83-.18,2.74-.53.9-.35,1.74-.82,2.49-1.42.76-.6,1.43-1.31,2-2.11.57-.8.99-1.67,1.24-2.59l-1.02-.45c-.17.55-.45,1.1-.86,1.62M255.46,443.74c.25-.58.57-1.09.95-1.51.38-.42.82-.75,1.32-1,.49-.24,1.01-.37,1.54-.37.64,0,1.24.12,1.81.37.56.25,1.05.58,1.47,1.01.42.43.75.94.99,1.52.24.58.36,1.21.36,1.89l-8.88-.02c.05-.68.21-1.31.46-1.89M283.91,440.84c-.5-.41-1.16-.73-1.97-.96-.81-.23-1.81-.34-2.98-.34-.97,0-1.89.11-2.77.33-.88.21-1.65.51-2.3.88-.65.37-1.18.81-1.57,1.33-.38.51-.58,1.06-.58,1.65,0,.3.04.58.13.83.09.26.22.48.38.66.17.19.36.34.59.44.23.1.48.16.76.16.36,0,.65-.07.88-.2.23-.13.41-.31.54-.53.13-.22.23-.47.28-.76.05-.29.08-.59.08-.9,0-.33.04-.66.12-.99.08-.33.23-.62.44-.87.22-.26.51-.46.89-.62.38-.16.87-.23,1.47-.23.53,0,1.02.08,1.44.23.43.15.79.39,1.09.74.3.34.53.79.69,1.36.16.56.24,1.25.24,2.06v1.12c-.8.2-1.62.41-2.46.65-.84.23-1.66.5-2.44.8-.79.3-1.54.64-2.24,1.02-.7.38-1.32.81-1.85,1.3-.53.49-.95,1.04-1.25,1.66-.31.62-.46,1.31-.46,2.08,0,.63.1,1.22.32,1.77.21.55.51,1.02.92,1.41.4.4.88.72,1.45.94.56.23,1.2.34,1.9.34.76,0,1.42-.09,1.99-.26.57-.18,1.09-.4,1.57-.68.47-.28.91-.58,1.32-.92.4-.33.82-.66,1.24-.98v2.45h3.57v-13.51c0-.71-.11-1.36-.33-1.95-.22-.59-.58-1.09-1.08-1.5M281.76,454.05c-.36.27-.7.52-1.04.76-.34.24-.68.44-1.01.62-.34.18-.69.32-1.05.43-.36.11-.74.16-1.15.16-.38,0-.74-.09-1.09-.26-.35-.17-.66-.4-.93-.7-.27-.3-.48-.64-.64-1.03-.16-.39-.24-.8-.24-1.24s.1-.83.31-1.22c.21-.39.5-.75.86-1.1.36-.34.78-.67,1.26-.97.48-.3.98-.59,1.51-.85.53-.26,1.07-.5,1.62-.71.55-.21,1.08-.4,1.59-.56v6.68ZM290.25,431.75v26.04h3.55v-27.06h-1.02l-2.53,1.01ZM305.92,455.64c-.33.2-.69.29-1.09.29-.27,0-.52-.05-.76-.15-.24-.1-.44-.24-.61-.41-.17-.17-.31-.37-.41-.61-.1-.23-.15-.48-.15-.75v-12.62h4.02v-1.5h-4.02v-6.12h-1.02c-.18.91-.38,1.77-.62,2.58-.23.81-.56,1.53-.97,2.14-.41.62-.94,1.1-1.58,1.47-.64.36-1.47.54-2.47.54v.88h3.1v12.62c0,.62.07,1.19.2,1.7.14.51.35.95.64,1.32.29.36.65.65,1.09.85.44.2.96.3,1.56.3,1.16,0,2.13-.24,2.92-.72.79-.47,1.42-1.13,1.9-1.95l-.88-.6c-.25.29-.53.53-.86.72M324.44,442.84c-.23-.66-.55-1.24-.96-1.73-.41-.49-.89-.88-1.43-1.16-.55-.28-1.13-.43-1.76-.43-1.21,0-2.4.3-3.57.91-1.16.6-2.29,1.52-3.37,2.72v-12.43h-1.01l-2.53,1.01v26.04h3.55v-13.26c.4-.39.82-.74,1.24-1.05.43-.32.86-.59,1.29-.82.44-.23.86-.4,1.29-.52.42-.12.82-.18,1.2-.18.85,0,1.53.3,2.07.91.53.61.8,1.51.8,2.68v12.24h3.55v-12.85c0-.74-.12-1.45-.35-2.11"/>
  <path class="st1" d="M183.46,408.91h-12.61l.13-.78c.39-2.21.56-4.52.56-5.82,0-7.73-3.42-16.77-13.06-16.77-3.3,0-6.49,1.49-9.12,3.35-3.01,2.12-5.72,4.72-7.74,7.81-2.29,3.5-4.01,7.41-5.96,11.1-.2.37-.39.74-.58,1.1h-.2v-14.91h-3.92v14.91h-11.41v-1.49c0-15.76-11.41-21.36-21.17-21.36h-15.04v3.33c1.1-.08,13.88-.12,14.53-.12,10.91,0,17.45,7.09,17.51,18.97v.67s-48.24,0-48.24,0v-25.11c-1.15-.13-3.18-.23-4.07-.23-7.12,0-17.66,5.12-17.66,16.13,0,3.69,1.32,6.79,3.84,8.97,2.32,2.02,5.56,3.13,9.09,3.13h1.24l2.49-2.66.21-.23h-2.86c-5.85,0-9.78-3.78-9.78-9.41,0-5.19,2.51-8.25,4.62-9.9,2.65-2.08,5.75-2.82,7.6-2.82h1.36v25.02h124.15v-44.76h-3.92v41.87ZM166.91,408.41l-.12.5h-27.95l.18-.81c2.44-10.89,12.23-19.34,19.03-19.34,2.19,0,9.34,1.03,9.34,14.25,0,.83-.03,3.66-.47,5.4M199.74,411.8h3.91v-44.76h-3.91v44.76ZM55.71,377.36c1.64,0,2.98-1.33,2.98-2.98s-1.33-2.98-2.98-2.98-2.97,1.33-2.97,2.98,1.33,2.98,2.97,2.98M233.43,377.38c1.65,0,2.98-1.34,2.98-2.98s-1.33-2.98-2.98-2.98-2.97,1.33-2.97,2.98,1.33,2.98,2.97,2.98M64.62,377.36c1.64,0,2.97-1.33,2.97-2.98s-1.33-2.98-2.97-2.98-2.98,1.33-2.98,2.98,1.33,2.98,2.98,2.98M273.95,411.8h3.91v-44.76h-3.91v44.76ZM223.09,400.01c0,6.72,5.56,11.79,12.93,11.79h8.79v-28c-1.12-.15-2.4-.23-3.81-.23-10.04,0-17.91,7.22-17.91,16.44M240.9,408.91h-3.73c-6.8,0-9.85-4.73-9.85-9.41,0-8.26,6.26-12.72,12.15-12.72h1.43v22.13ZM293.14,371.43c-1.64,0-2.98,1.33-2.98,2.98s1.33,2.98,2.98,2.98,2.98-1.34,2.98-2.98-1.33-2.98-2.98-2.98M322.06,384.45c-10.19,0-18.17,6.95-18.17,15.81s7.43,11.53,12.43,11.53c.69,0,1.19-.01,1.48-.04l1.95-2,.83-.86h-2.6c-4.93,0-9.91-2.81-9.91-9.09,0-5.61,5.19-11.9,12.15-11.9h.66v24.47c0,4.69-.88,9.02-7.23,9.02-.55,0-1.26-.08-2.01-.2l-.5,2.99c.94.19,1.95.3,3.53.3,3.05,0,10.13-1.02,10.13-10.44v-29.37c-1.09-.15-1.96-.23-2.72-.23M291.19,414.25c0,5.13-2.06,7.23-7.11,7.23-.53,0-1.33-.09-1.95-.2l-.49,3.13c1.6.23,2.26.28,3.52.28,2.99,0,9.94-.9,9.94-9.24v-27.68h-3.91v26.47ZM242.33,371.43c-1.64,0-2.97,1.33-2.97,2.98s1.33,2.98,2.97,2.98,2.97-1.34,2.97-2.98-1.33-2.98-2.97-2.98M258.07,414.25c0,5.13-2.06,7.23-7.11,7.23-.53,0-1.32-.09-1.94-.2l-.49,3.13c1.6.23,2.26.28,3.53.28,2.98,0,9.93-.9,9.93-9.24v-27.68h-3.91v26.47Z"/>
</svg>