<?xml version="1.0" encoding="UTF-8"?>
<svg id="Layer_1" xmlns="http://www.w3.org/2000/svg" version="1.1" viewBox="0 0 612 792">
  <!-- Generator: Adobe Illustrator 30.1.0, SVG Export Plug-In . SVG Version: 2.1.1 Build 136)  -->
  <defs>
    <style>
      .st0 {
        fill: #fff;
      }
    </style>
  </defs>
  <g>
    <path class="st0" d="M386.28,350.8c1.27.13,2.7.3,4.06.71-.46.68-.91,1.37-1.35,2.06-2.07,3.21-4,6.54-5.83,10.01-1.32,2.5-2.53,5.04-3.63,7.61-.38.86-.73,1.71-1.08,2.56-.97-1.05-1.66-2.39-1.28-4.17.66-3.03,1.11-6.14,1.53-9.16.1-.73.2-1.47.31-2.2,1.25-2.43,2.59-4.81,3.99-7.14h0c.89-.29,1.9-.4,3.02-.29l.25.02h0Z"/>
    <path class="st0" d="M424.58,318.22c-2.18,1.34-4.31,2.77-6.37,4.27h0c-5,3.61-9.66,7.61-13.99,11.98-.55.55-1.1,1.13-1.64,1.69-1.14-1.28-2.39-2.67-3.65-4.04-.24-.26-.46-.53-.64-.8-.08-.11-.16-.24-.24-.35.59-.64,1.18-1.27,1.78-1.9,0,0,0-.02.02-.02l.29-.29s.02,0,.02-.02c.24-.27.51-.54.76-.79,1.04-1.05,2.09-2.09,3.16-3.09,1.55-.53,3.1-1.06,4.67-1.62l.39-.14c4.16-1.46,8.44-2.97,12.72-4.21.4-.11.81-.24,1.22-.35.48-.13.98-.24,1.48-.32h0Z"/>
    <path class="st0" d="M600.29,460.31c-.53,2.22-1.47,4.14-2.83,5.77,1.01-1.91,1.95-3.83,2.83-5.77Z"/>
    <path class="st0" d="M439.17,321.41c-.88.45-1.76.9-2.63,1.38h0c-21.51,11.72-38.45,30.67-47.54,53.42-.37.9-.71,1.8-1.04,2.72-.68-1.07-1.36-2.15-2.05-3.21-.09-.15-.2-.31-.28-.45-.02-.02-.02-.04-.04-.07l-.08.17c-.24.49-.58.87-1.04,1.14.49-1.37,1-2.73,1.53-4.07,2.61-6.57,5.83-12.78,9.57-18.57h0c.06-.1.13-.21.19-.31,1.33-2.04,2.72-4.02,4.17-5.96.3-.4.61-.81.92-1.21.62-.8,1.24-1.6,1.89-2.38h0c.96-1.18,1.96-2.34,2.96-3.48.61-.68,1.22-1.34,1.84-2.01,6.43-6.86,13.72-12.89,21.69-17.97.96-.61,1.93-1.2,2.9-1.79.22.06.44.11.66.18,1.92.55,3.9,1.31,6.37,2.46h0Z"/>
    <path class="st0" d="M601,434.57h0c-.22,1.33-.46,2.65-.73,3.97h0c-2.2,10.59-5.96,20.9-11.17,30.44-.56,1.02-1.14,2.05-1.73,3.06h0c-.13.04-.26.08-.39.11-1.91.54-3.91,1.24-6.12,2.14-.18.07-.35.15-.52.22.79-1.13,1.56-2.27,2.3-3.42h0c7.23-11.18,12.13-23.62,14.7-37.28.02-.13.06-.26.07-.39.2-1.02.37-2.02.53-3.04.29.33.58.66.85,1,.86,1.04,1.6,2.12,2.22,3.2h0Z"/>
    <path class="st0" d="M449.41,326.84c-.88.38-1.76.77-2.62,1.18-9.2,4.32-17.75,10.15-25.2,17.39-12.31,11.94-20.85,25.97-25.45,42.11-.29,1.01-.55,2.03-.82,3.05-.22-.33-.42-.65-.63-.97l-.07-.1c-.37-.55-.71-1.13-1.08-1.7h0c.25-1.03.53-2.07.83-3.08,4.38-15.46,12.4-29.28,24.22-41.36,7.14-7.3,15.04-13.23,23.65-17.82.84-.45,1.68-.88,2.54-1.31.78.42,1.55.85,2.33,1.29.76.43,1.53.87,2.31,1.33h0Z"/>
    <path class="st0" d="M589.54,428.44c-.08.81-.19,1.61-.3,2.4-1.98,14.81-7.06,28.58-15.56,41.11-.99,1.47-2.01,2.9-3.06,4.29-.95,1.28-1.93,2.53-2.94,3.75-1.18.45-2.43.83-3.82,1.16-.77.18-1.55.35-2.33.48.43-.44.86-.88,1.27-1.34.51-.55,1.02-1.1,1.51-1.67,1.08-1.21,2.14-2.46,3.19-3.75,9.65-11.96,15.88-25.51,18.89-40.55.25-1.27.48-2.54.69-3.81.13-.78.24-1.55.34-2.33.07.02.13.03.2.05.25.07.52.13.78.18.72.13,1.02.09,1.15.04h0Z"/>
    <path class="st0" d="M479.57,501.3c-.39-.06-.8-.13-1.19-.2-.41-.08-.82-.15-1.23-.24-2.02-.39-4.02-.85-6.03-1.39-2.8-.77-5.54-1.64-8.18-2.61l-.55-.21h0c-1.37-.51-2.73-1.04-4.05-1.62h0c-.09-.04-.19-.08-.28-.12-.13.02-.26.04-.39.08h0c-.91.21-1.82.81-2.47,2.27-.13.3-.23.57-.29.82-.06.18-.09.35-.12.51.38.16.76.32,1.14.48.37.14.74.29,1.12.44,6.17,2.43,12.67,4.18,19.54,5.29.35.06.7.11,1.03.16.46.08.92.14,1.38.2l.61-3.86h-.02Z"/>
    <path class="st0" d="M521.99,496.93c.99-.36,1.96-.73,2.93-1.14-.18.42-.34.86-.5,1.32-.34.96-.71,1.8-1.1,2.56h0c-.18.08-.35.14-.52.2-.4.16-.81.32-1.22.47-.27.1-.53.2-.8.29-.61.22-1.22.42-1.84.64h0c-.5.17-1,.34-1.5.5h-.02c-.66.21-1.33.41-1.99.6-.11.05-.23.08-.35.11-.7.21-1.39.39-2.1.57h0c-.77-.37-1.56-.85-2.4-1.43-.08-.06-.17-.12-.26-.18-.16-.12-.41-.3-.56-.39-1.49.23-2.98.24-4.45.14,2.32-.36,4.61-.8,6.85-1.33,3.37-.79,6.65-1.77,9.84-2.93h-.02Z"/>
    <path class="st0" d="M578.54,426.69c-.08.78-.17,1.56-.27,2.32-1.98,15.41-7.82,29.47-17.5,42.13-2.51,3.29-5.18,6.35-7.99,9.17h0c-.87.9-1.78,1.77-2.69,2.6-1.21.12-2.43.26-3.62.44l-.77.11c1.1-.89,2.19-1.81,3.26-2.77h0c.83-.74,1.65-1.49,2.44-2.27,13.76-13.22,22.18-29.39,25.54-48.15.08-.46.17-.93.24-1.39.13-.78.24-1.55.34-2.32.35.04.7.08,1.02.12h0Z"/>
    <path class="st0" d="M458.41,332.72c-.88.33-1.76.67-2.62,1.02-9.74,4-18.69,9.9-26.81,17.72-13.43,12.94-21.68,28.79-25.11,47.1-.02.13-.06.27-.07.39-.21,1.08-.39,2.16-.53,3.25-.31-.39-.6-.8-.88-1.2h0c.14-1.13.3-2.25.49-3.35,3.31-20.18,12.84-37.41,28.45-51.6,6.57-5.97,13.77-10.72,21.55-14.29.85-.39,1.68-.77,2.55-1.13,1,.67,1.99,1.35,3,2.07h0Z"/>
    <path class="st0" d="M413.67,395.56s.03,0,.04-.02v.04h-.02l-.02-.02h0Z"/>
    <path class="st0" d="M466.62,338.93c-.88.28-1.76.57-2.63.89-7.11,2.57-13.94,6.25-20.5,11.08-14.89,10.95-24.68,25.5-29.25,43.47-.1.4,0,.95-.54,1.18.82-4.43,2.12-8.74,3.85-12.89,8.83-21.2,23.9-35.79,44.79-44.13.85-.34,1.69-.67,2.56-.98.42.35.86.68,1.28,1.02.15.11.29.23.44.35h0Z"/>
    <path class="st0" d="M414.42,411.5c.03.91-.06,1.83-.09,2.75-.05.9-.08,1.8-.09,2.7,0,.81-.02,1.61,0,2.41v.16c-.27-.14-.55-.26-.81-.37-1.48-.55-3.02-1.86-4.38-3.52,0-1.27.03-2.53.08-3.8v-.12c.1-1.62,1.06-2.63,2.5-2.72,1.52-.09,2.75.96,2.8,2.5h0Z"/>
    <path class="st0" d="M567.28,432.43c-.12.67-.2,1.35-.36,2.02-5.44,23.56-18.92,41.04-40.03,52.69-8.32,4.6-17.25,7.58-26.69,8.72-14.8,1.81-28.53.16-41.12-5.06-1.46-.59-2.9-1.25-4.32-1.95-1.02-1.54-2.01-3.19-2.96-4.96-.14-.26-.27-.52-.41-.78.58.35,1.17.69,1.76,1.02.57.33,1.17.64,1.75.94.11.07.24.13.36.18h0c5.51,2.85,11.5,5.09,17.97,6.72,8.52,2.15,17.2,2.59,25.97,1.68,28.61-2.93,54.33-22.71,64.46-49.59,1.4-3.69,2.46-7.47,3.37-11.31.03-.11.08-.24.12-.35.05,0,.09.02.14.03h0Z"/>
    <path class="st0" d="M420.87,421.97c.09,1.4.22,2.77.39,4.16-1.33-1.82-2.84-3.48-4.34-4.76-.08-1.02-.15-2.04-.18-3.06-.1-2.36-.08-4.74.05-7.12.64-11.82,4.18-22.75,10.19-32.92.71-1.2,1.64-1.7,2.66-1.51,1.61.29,2.46,1.93,1.78,3.41-.18.4-.44.76-.67,1.13-5.23,8.47-8.54,17.65-9.57,27.54-.47,4.49-.56,8.87-.29,13.12h-.02Z"/>
    <path class="st0" d="M541.17,464.73c-1.03,1.05-2.03,2.15-3.1,3.18-10.28,9.85-22.41,16.11-36.42,18.61-17.79,3.16-34.6.34-50.07-9.04-.15-.09-.29-.18-.44-.27-1.21-.74-2.39-1.5-3.53-2.29-.08-.2-.17-.39-.24-.6-1.66-4.03-4.88-7.19-9.31-9.14-.68-.29-1.32-.63-1.92-1.01-1.02-.62-1.97-1.37-2.85-2.24l-.02-.02c-.35-.42-.71-.85-1.04-1.29-.31-.39-.61-.77-.9-1.17-.31-.41-.62-.83-.92-1.25-1.04-1.73-1.89-3.7-2.51-5.89l-.08-.31c-.1-.38-.21-.75-.31-1.12-.67-2.42-1.37-4.89-1.7-7.5,1.28,3.08,2.8,6.06,4.57,8.99,2.08,3.43,4.5,6.75,7.27,9.95h0c.43.5.86,1,1.31,1.49,3.27,3.6,6.79,6.79,10.55,9.53,8.4,6.14,18.03,10.14,28.78,11.8,22.55,3.5,42.52-2.34,59.59-17.66,1.06-.96,2.06-1.99,3.08-2.99.08.08.15.15.23.23v.03Z"/>
    <path class="st0" d="M473.13,344.34c.34.3.69.59,1.06.91-.07.02-.14.03-.21.06-.24.07-.48.11-.72.17-.02,0-.03.02-.05.02-.08.02-.14.04-.23.06-.08.02-.16.04-.24.07-.43.1-.86.23-1.31.35-9.03,2.55-17.57,7.02-25.58,13.43-2.14,1.72-4.04,3.75-6.04,5.65-.35.32-.6.72-.91,1.09-.09-.09-.18-.19-.27-.28,1.9-2.23,3.98-4.3,6.17-6.23,7.64-6.74,16.19-11.62,25.64-14.52.89-.28,1.8-.54,2.7-.77h0Z"/>
    <path class="st0" d="M563.87,418.68c-.03.48-.07.94-.1,1.42-.06.68-.11,1.35-.19,2.03-1.16,10.43-4.53,20.13-9.9,29.19-.2.34-.43.67-.71.93-.83.76-1.96.82-2.9.19-.91-.6-1.3-1.73-.9-2.76.18-.44.44-.86.7-1.26,5.49-8.86,8.87-18.46,9.78-28.84.07-.72.53-1.63.57-2.34.04-.54-.35-.89-.33-1.43.02-.48.04-.94.05-1.42v-.07c0-.3,0-.6.02-.89v-.06c.74,1.51,1.9,2.87,3.09,4.29l.12.15c.24.27.48.55.71.86v.02Z"/>
    <path class="st0" d="M483.83,351.11c-1.49.17-2.98.39-4.47.69-2.75.52-5.47,1.22-8.19,2.12-.24.08-.48.16-.72.24-.06-.1-.11-.22-.17-.31,2.3-.69,4.57-1.47,6.9-2.04.51-.12,1.01-.24,1.51-.35,1.33-.3,2.65-.55,3.99-.74h.02c.38.14.75.27,1.14.39Z"/>
    <path class="st0" d="M538.21,460.32c-3.71,3.93-8,7.21-12.62,10.03-.34.2-.68.41-1.04.56-1,.39-2.07.03-2.61-.87-.54-.88-.37-2.07.42-2.75.26-.23.58-.39.88-.56,16.14-9.62,25.97-23.72,29.55-42.08,1.06-5.47,1.36-10.9.98-16.17-.06-.79-.13-1.57-.22-2.35.15.02.3,0,.45,0,.72,0,1.53.1,2.28.43.15,1.26.26,2.5.35,3.73v.04c1.26,18.93-4.94,35.68-18.42,49.98h0Z"/>
    <path class="st0" d="M509.05,476.09c-2.64,1-5.22,1.67-7.83,2.21-27.63,5.73-55.79-7.68-69.15-31.67-4.47-8.02-7.3-16.58-7.96-25.77-1.43-19.8,4.56-37.04,18.24-51.5,3.78-4,8.12-7.34,12.82-10.2.3-.18.6-.38.92-.5,1-.39,2.1-.03,2.63.86.58.96.39,2.11-.51,2.83-.24.19-.52.33-.78.49-15.93,9.47-25.7,23.35-29.44,41.43-4.48,21.65,3.16,43.08,18.22,57.29,9.34,8.81,20.42,14.2,33.06,16.39,9.76,1.69,19.38,1.05,28.84-1.84.21-.07.42-.1.63-.15.04,0,.08.03.31.14Z"/>
    <path class="st0" d="M501.08,358.07s.02.02.03.03h-.06l.02-.02h0Z"/>
    <path class="st0" d="M501.11,358.11c3.54.55,6.99,1.41,10.32,2.58.59.21,1.18.41,1.75.65h0c.5.18.98.38,1.46.57.04.02.08.04.12.06,2.22.94,4.38,2.01,6.46,3.22.7.39,1.38.82,2.06,1.24.9.57,1.79,1.17,2.65,1.8.96.68,1.89,1.4,2.81,2.13.51.4,1.01.83,1.49,1.26h0c.67.58,1.33,1.18,1.96,1.79,4.36,4.16,8.08,9,10.95,14.36h0c.25.48.51.97.74,1.46.24.49.48.98.71,1.48-.21.28-.47.57-.82.87-.09.08-.2.16-.31.24-.23-.53-.46-1.05-.72-1.58-.1-.2-.2-.4-.31-.6-.4-.84-.85-1.66-1.31-2.49-1.59-2.83-3.45-5.58-5.58-8.26-.67-.84-1.35-1.66-2.07-2.45h0c-1.53-1.75-3.15-3.37-4.85-4.87-.29-.27-.59-.54-.9-.79h0c-1.12-.96-2.27-1.85-3.45-2.71h0c-.7-.51-1.4-.99-2.12-1.47-2.7-1.76-5.55-3.27-8.55-4.53h0c-.54-.24-1.08-.45-1.63-.66-2.68-1.03-5.48-1.87-8.4-2.54-.68-.16-1.37-.25-2.05-.42-.16-.05-.29-.22-.42-.35v.02Z"/>
    <path class="st0" d="M533.97,455.5c-8.71,9.43-19.54,15.21-32.21,17.5-2.32.41-4.69.58-7.03.86-1.8.22-2.59-.81-2.65-1.86-.08-1.24.86-1.96,2.49-2.04,14.22-.62,26.44-5.96,36.62-15.86,8.29-8.08,13.71-17.82,15.82-29.22,1.16-6.26,1.38-12.31.65-18.12-.08-.7-.18-1.4-.3-2.1-.32-1.97-.76-3.93-1.32-5.86.24.39.46.77.67,1.18l.09.19s.04.08.06.11h0c.29.61.55,1.2.74,1.82.39,1.19.86,2.09,1.46,2.73.14.78.27,1.56.39,2.34.04.27.08.55.12.82,2.41,17.81-2.9,33.74-15.61,47.5h0Z"/>
    <path class="st0" d="M479.5,471.43c-7.89-1.1-15.2-3.8-21.86-8.13-14.17-9.2-23.14-22.09-26.09-38.72-3.41-19.23,1.81-36.18,15.12-50.49,8.77-9.44,19.63-15.26,32.34-17.51,2.32-.41,4.69-.57,7.04-.86.22-.03.44-.04.66-.02,1.11.1,1.88.95,1.86,2-.02,1.01-.75,1.79-1.82,1.88-1.18.1-2.36.13-3.54.23-9.27.79-17.81,3.76-25.49,8.97-13.26,9-21.66,21.38-24.3,37.2-3.02,18.05,1.86,34.03,14.14,47.61,8.4,9.29,18.87,15.08,31.18,17.49.26.05.49.24.73.38l.03-.02h0Z"/>
    <path class="st0" d="M455.79,453.41c-2.3-1.54-4.24-3.44-6.02-5.49-6.75-7.79-10.91-16.79-12.24-27-2.21-16.82,2.59-31.47,14.25-43.75,7.22-7.61,16.17-12.32,26.38-14.67,11.41-2.6,22.45-1.4,33.14,3.28.4.18.81.34,1.18.57.73.47,1,1.31.71,2.06-.31.83-1.1,1.28-2,1.09-.34-.07-.67-.22-.98-.38-8.15-3.98-16.78-5.55-25.79-4.74-21.26,1.91-39.51,16.56-44.82,38.57-4.35,18.03,1.67,37.19,15.37,49.66.28.25.55.53.81.79h0Z"/>
    <path class="st0" d="M526.05,376.99c.79.69,1.63,1.32,2.36,2.06,7.94,7.97,12.9,17.52,14.56,28.65,2.56,17.13-2.16,32.09-14.04,44.66-7.14,7.55-15.99,12.28-26.09,14.65-11.52,2.71-22.69,1.54-33.51-3.22-.36-.16-.73-.3-1.06-.51-.81-.5-1.11-1.47-.73-2.28.35-.76,1.22-1.15,2.11-.89.29.08.56.24.84.37,24.23,11.77,53.94,1.61,66.23-22.21,4.04-7.84,6.06-16.14,5.69-24.93-.59-13.75-5.71-25.57-15.56-35.28-.31-.3-.58-.64-.87-.96.03-.03.06-.07.09-.09h0Z"/>
    <path class="st0" d="M534.21,398.86c.21.36.46.71.6,1.08,4.43,12.06,4.01,24.03-1.33,35.65-6.55,14.27-17.69,23.23-33.02,26.57-16.88,3.69-35.76-2-47.71-17.5-.22-.27-.44-.55-.58-.87-.3-.68-.08-1.47.48-1.89.64-.48,1.44-.44,2.03.14.28.27.49.61.73.92,7.65,10.06,17.79,15.89,30.28,17.61,23.2,3.2,45.9-12.29,50.54-36.79,1.53-8.09.99-16.03-1.73-23.81-.13-.37-.19-.75-.28-1.14l-.03.03h0Z"/>
    <path class="st0" d="M446.04,429.66c-.2-.36-.45-.71-.59-1.08-2.32-6.64-3.06-13.45-2.24-20.44,1.24-10.43,5.41-19.52,12.64-27.13,7.36-7.76,16.38-12.53,26.97-14.06,13.13-1.9,25.15,1.06,35.88,8.91,3.49,2.55,6.5,5.61,9.14,9.02.22.27.43.55.58.86.35.69.18,1.42-.39,1.89-.61.51-1.43.51-2.04-.04-.23-.2-.39-.46-.58-.71-7.74-10.31-18.03-16.28-30.8-17.91-23.01-2.93-44.46,12.05-49.78,34.68-1.97,8.38-1.7,16.67.91,24.88.11.37.17.76.25,1.14l.03-.02h0Z"/>
    <path class="st0" d="M532.13,420.84c-.56,2.64-.92,5.35-1.71,7.92-4.5,14.71-17.26,26.02-32.4,28.86-23.19,4.35-45.5-10.82-49.97-34-.09-.47-.21-.94-.24-1.42-.08-1.05.3-1.64,1.14-1.76.88-.13,1.47.36,1.68,1.43.12.6.19,1.21.29,1.81,2.84,15.93,15.46,28.64,31.16,32.14,18.27,4.07,37.01-4.82,45.56-21.58,2.07-4.05,3.46-8.3,4.13-12.8.03-.22.24-.39.38-.59v-.02h0Z"/>
    <path class="st0" d="M448.66,407.71c.66-4.35,1.78-8.57,3.78-12.5,6.57-12.92,16.97-20.97,31.27-23.39,13.63-2.3,25.68,1.58,35.92,10.84,7.28,6.58,11.56,14.85,13.22,24.5.03.17.08.35.08.52,0,.79-.49,1.37-1.21,1.48-.75.1-1.38-.3-1.58-1.06-.12-.46-.17-.95-.24-1.42-2.52-15.96-14.85-28.83-30.3-32.66-23.6-5.84-45.8,9.81-50.29,32-.09.47-.16.95-.28,1.41-.03.12-.24.19-.37.28l.02.02h0Z"/>
    <path class="st0" d="M519.42,439.1c-.28.43-.53.89-.86,1.29-6,6.98-13.55,11.31-22.62,12.79-12.33,2.01-23.24-1.23-32.4-9.68-7.21-6.65-11.14-15.04-12.13-24.81-.54-5.32.2-10.47,1.81-15.54.08-.25.16-.51.28-.73.34-.59.96-.82,1.57-.6.55.2.87.72.79,1.36-.04.3-.16.59-.26.87-7.14,19.81,4.59,43.51,27.62,47.95,13.73,2.65,25.5-1.65,35.08-11.85.35-.37.74-.7,1.12-1.04l-.03-.02h.02Z"/>
    <path class="st0" d="M462.12,389.22c.26-.32.52-.67.8-.97,6.44-6.97,14.39-11,23.8-12.14,19.01-2.3,37.39,10.05,41.81,30.17,1.47,6.69,1.06,13.3-1,19.83-.12.38-.23.76-.41,1.1-.32.58-.98.79-1.58.55-.54-.21-.87-.77-.77-1.37.06-.34.21-.67.33-1,5.99-17.04-1.84-35.95-17.45-44.22-15.34-8.13-33.34-4.29-44.43,7.28-.3.31-.62.61-.94.91-.06-.05-.1-.09-.16-.13h0Z"/>
    <path class="st0" d="M479.23,382.52c.37-.2.71-.45,1.09-.58,15.36-5.28,32.44,1.15,40.72,15.37,3.7,6.36,5.1,13.26,4.4,20.58-.81,8.5-4.31,15.7-10.41,21.66-.24.24-.51.49-.8.67-.47.3-.94.2-1.33-.17-.43-.42-.48-.94-.16-1.44.19-.29.47-.52.72-.75,5.98-5.58,9.42-12.48,10.25-20.59,1.82-17.95-10.46-32.81-26.62-35.93-5.71-1.1-11.33-.78-16.87.94-.33.1-.68.14-1.02.21l.02.03h0Z"/>
    <path class="st0" d="M502.78,446.67c-2.85,1.3-5.72,2.09-8.68,2.45-9.53,1.19-18.22-1.03-25.81-6.92-7.32-5.68-11.73-13.18-12.9-22.39-1.46-11.54,1.91-21.54,10.2-29.78.22-.22.43-.44.69-.61.55-.36,1.17-.28,1.53.19.38.47.39.97.03,1.45-.19.24-.43.43-.66.64-7.47,7.1-10.91,15.86-10.39,26.09.78,14.98,11.98,27.62,26.72,30.44,6.21,1.18,12.29.74,18.23-1.41.24-.08.5-.17.74-.24.03,0,.08.03.28.11h.02Z"/>
    <path class="st0" d="M486.17,445.34c-.94-.12-1.89-.2-2.81-.39-12.5-2.46-22.34-12.61-24.44-25.18-2.59-15.47,7.03-30.75,22.1-35.07.34-.09.69-.18,1.02-.2.55-.04.93.25,1.05.79.11.48-.11.86-.54,1.09-.27.14-.57.21-.87.29-11.72,3.19-20.35,13.17-21.77,25.19-1.76,14.99,8.19,29.14,22.95,32.64,1.1.26,2.22.45,3.32.67,0,.06-.02.11-.02.18v-.02Z"/>
    <path class="st0" d="M495.85,384.46c3.27.32,6.35,1.34,9.22,2.87,9.48,4.99,15.21,12.78,16.77,23.39,2.15,14.61-6.91,29.72-22.21,34.16-.34.09-.68.2-1.02.22-.47.02-.86-.18-1-.68-.14-.52-.02-.98.49-1.23.31-.15.67-.22,1-.32,11.72-3.57,18.93-11.41,21.28-23.36,3.06-15.57-7.04-30.65-22.74-34.47-.59-.15-1.31-.02-1.77-.6l-.03.03h0Z"/>
    <path class="st0" d="M471.87,435.63c-.33-.26-.67-.51-.97-.79-6.38-6.05-9.47-13.47-8.97-22.26.82-14.4,12.14-24.35,24.23-25.96,3.16-.42,6.29-.27,9.41.31.25.05.51.12.76.2.54.16.82.5.74,1.07-.08.53-.57.85-1.19.74-.82-.14-1.63-.37-2.44-.49-13.46-2.1-26.51,6.38-29.86,19.59-2.59,10.25.22,19.1,7.58,26.59.27.28.56.55.85.82-.05.06-.09.12-.14.18h0Z"/>
    <path class="st0" d="M510.49,395.43c.47.5.96.98,1.41,1.49,11.74,13.38,8.09,34.13-7.51,42.74-6.07,3.35-12.52,4.3-19.32,2.98-.3-.06-.6-.13-.88-.24-.48-.18-.66-.56-.56-1.05.09-.51.46-.74.95-.73.25,0,.51.11.76.17,14.39,3.4,29.84-6.04,32.35-21.98,1.3-8.26-1.05-15.59-6.4-21.98-.33-.39-.69-.78-1.03-1.17.08-.08.16-.16.24-.24h0Z"/>
    <path class="st0" d="M514.08,406.41c.4,1.5.9,2.99,1.2,4.51,2.11,10.93-3.56,22.38-13.7,27.03-9.49,4.35-18.57,3.32-26.94-3.04-.31-.24-.7-.47-.86-.79-.14-.29-.14-.78.02-1.07.21-.38.66-.41,1.03-.14.28.2.55.44.81.67,13.67,11.46,34.99,4.61,38.98-13.42.96-4.32.7-8.61-.61-12.83-.08-.27-.15-.55-.23-.84.09-.03.19-.05.28-.08h0Z"/>
    <path class="st0" d="M466.18,422.07c-.32-1.44-.75-2.87-.95-4.32-1.93-14.09,7.61-26.04,20.31-28.23,7.59-1.32,14.42.39,20.48,5.15.31.24.62.5.88.78.3.33.31.71,0,1.07-.3.34-.68.41-1.06.17-.25-.16-.48-.39-.71-.58-14.25-11.98-35.98-4.13-39.28,14.19-.67,3.69-.47,7.31.48,10.92.07.24.11.5.17.74-.1.04-.22.08-.32.11h0Z"/>
    <path class="st0" d="M512.7,416.38c.15,1.75-.19,3.52-.73,5.22-2.84,8.87-8.77,14.36-17.98,16.06-9.87,1.81-20.52-3.64-24.65-13.52-.13-.32-.36-.66-.35-.98,0-.29.24-.71.47-.8.23-.08.69.09.86.31.24.28.32.71.47,1.07,3.38,8.23,11.59,13.56,20.66,13.31,9.74-.27,18.16-7.16,20.5-16.66.32-1.31.49-2.65.73-4v-.02Z"/>
    <path class="st0" d="M467.9,412.05c.31-2.8,1.03-5.48,2.3-8.02,4.18-8.32,13.03-13.36,22.28-12.32,8.83,1.01,15.19,5.65,18.87,13.82.09.2.18.4.24.61.15.46.14.9-.36,1.12-.5.21-.84-.07-1.04-.52-.1-.24-.19-.49-.29-.73-3.32-8.19-11.46-13.59-20.31-13.47-10.12.14-18.94,7.41-21.1,17.31-.16.73.02,1.59-.61,2.2h0Z"/>
    <path class="st0" d="M505.97,427.93c-.69.72-1.32,1.49-2.06,2.15-6.1,5.38-13.09,7.01-20.75,4.25-7.6-2.75-11.98-8.4-13.29-16.35-.24-1.41-.15-2.88-.2-4.32,0-.22.03-.43.07-.65.14-.86.39-1.16.87-1.03.66.16.58.69.51,1.17-.28,1.83-.19,3.66.08,5.49,1.25,8.28,8.46,15.22,16.78,16.13,6.9.76,12.63-1.54,17.34-6.58.15-.16.28-.33.42-.5.08.08.15.16.23.24h0Z"/>
    <path class="st0" d="M477.13,399.28c1.3-1.48,2.97-2.43,4.7-3.26,12.68-6.03,26.96,1.99,28.99,15.58.24,1.59.08,3.22.1,4.84,0,.22.03.5-.09.63-.21.23-.51.45-.79.48-.14.02-.44-.39-.47-.63-.05-.52.04-1.04.07-1.57.37-6.68-2.1-12.17-7.23-16.39-6.93-5.68-16.73-5.78-24-.4-.39.28-.78.55-1.18.82-.04-.04-.07-.08-.1-.1h0Z"/>
    <path class="st0" d="M484.19,397.57c1.32-.69,2.72-.96,4.12-1.14,9.61-1.23,18.2,4.79,20.31,14.25,1.1,4.93.24,9.55-2.43,13.85-.14.23-.25.51-.46.63-.26.15-.6.17-.9.24-.03-.32-.11-.65-.06-.95.05-.24.28-.43.42-.66,7.07-10.8.39-25.26-12.43-26.97-2.71-.36-5.32-.05-7.91.7-.17.05-.33.11-.5.15-.03,0-.08-.05-.17-.1h0Z"/>
    <path class="st0" d="M494.95,432.38c-1.61.81-3.34.94-5.06.94-8.42,0-15.6-5.56-17.69-13.74-1.3-5.08-.56-9.89,2.18-14.37.21-.34.41-.69.71-.94.15-.13.58-.18.69-.07.17.18.24.52.22.77-.03.24-.26.44-.4.66-6.93,10.47-1.09,24.53,11.21,26.97,2.43.48,4.87.45,7.3-.08.28-.07.58-.08.86-.13h0Z"/>
    <path class="st0" d="M495.13,398.92c.49.16.98.28,1.45.47,6.22,2.55,9.96,7.14,10.56,13.82.61,6.92-2.27,12.32-8.24,15.97-.26.16-.54.34-.82.39-.21.04-.55-.08-.65-.23-.08-.15,0-.5.14-.67.15-.19.43-.27.66-.4,5.91-3.45,8.77-8.64,8.14-15.4-.6-6.5-4.29-10.91-10.33-13.36-.28-.11-.57-.2-.86-.31-.04,0-.07-.06-.09-.08.02-.08.03-.14.05-.22h0Z"/>
    <path class="st0" d="M484.16,430.04c-.38-.09-.78-.11-1.11-.28-6.04-2.96-9.44-7.82-9.6-14.52-.16-6.49,2.75-11.53,8.4-14.89.23-.13.46-.3.71-.33.22-.03.56.06.65.21.08.16,0,.52-.12.67-.2.22-.51.32-.78.47-5.44,3.16-8.24,7.95-8.11,14.18.12,6.13,3.15,10.7,8.54,13.67.48.26.94.56,1.41.85l.02-.03v.02Z"/>
    <path class="st0" d="M478.35,423.49c-.22-.19-.48-.34-.64-.57-6.02-8.91-.97-20.56,9.13-22.83.98-.22,1.99-.25,2.99-.32.39-.03,1-.2.98.5-.02.55-.55.44-.92.48-1.04.1-2.11.11-3.12.34-9.48,2.11-14.07,12.83-9.1,21.17.24.4.43.84.65,1.26l.03-.02h0Z"/>
    <path class="st0" d="M501.94,405.71c4.82,5.14,4.71,13.6-.12,19.03-2.81,3.15-6.33,4.91-10.59,5.07-.22,0-.44.02-.66,0-.35,0-.81-.02-.75-.48.02-.19.5-.41.79-.46,1.38-.23,2.81-.23,4.14-.61,9.12-2.62,13.1-13.26,8.01-21.27-.27-.43-.55-.86-.83-1.28h0Z"/>
    <path class="st0" d="M477.25,417.06c-1.96-7.1,3.53-16.25,13.72-15.92,1.81.06,3.53.57,5.16,1.36.24.11.5.23.66.42.1.12.1.4.05.57-.03.08-.31.17-.44.13-.24-.07-.47-.23-.71-.34-7.67-3.81-16.78.68-18.35,9.06-.2,1.06-.13,2.17-.16,3.26,0,.48.06.95.08,1.43h0Z"/>
    <path class="st0" d="M503.28,411.99c2.08,7.14-2.51,14.63-10.1,16.18-2.98.61-5.84.24-8.56-1.07-.38-.18-1.14-.3-.83-.92.33-.67.83-.06,1.2.12,4.54,2.15,8.97,1.88,13.08-.97,4.08-2.82,5.76-6.89,5.45-11.81-.03-.52-.16-1.02-.24-1.53h0Z"/>
    <path class="st0" d="M481.16,421.36c1.37,2.49,3.59,3.9,6.21,4.7,4.79,1.45,9.88-.38,12.74-4.47.23-.32.44-.65.71-1.05-.97,3.52-6.51,7.42-12.13,6.48-4.13-.7-8.61-3.87-8.36-6.1.32.19.59.35.86.51l-.05-.05h0Z"/>
    <path class="st0" d="M481.1,406.88c1.59-2.28,3.87-3.55,6.49-4.1,4.81-1,8.89.41,12.13,4.16.2.24.41.47.54.74.11.24.1.54.15.81-.27-.02-.55-.04-.82-.07l.05.05c-.24-.4-.41-.86-.71-1.21-4.1-5.12-11.93-5.65-16.74-1.14-.32.29-.65.57-.97.86-.04-.04-.08-.08-.11-.11Z"/>
    <path class="st0" d="M499.58,408.43c.48,1.25,1.01,2.49,1.43,3.77.18.55.15,1.18.22,1.8-.83,0-.71-.53-.82-.91-.27-1.01-.42-2.07-.86-3.01-2.42-5.24-8.65-7.44-13.88-4.95-.3.14-.59.3-.92.36,1.31-1.08,2.86-1.58,4.5-1.73,3.9-.36,7.12,1.02,9.65,4,.22.25.48.47.72.71l-.05-.05h0Z"/>
    <path class="st0" d="M481.2,421.4c-.15-.35-.32-.7-.44-1.05-.44-1.27-.87-2.55-1.31-3.83-.04-.12-.08-.28-.05-.39.08-.21.24-.39.36-.59.12.15.3.28.37.46.08.2.04.43.08.65,1.09,6.36,7.13,10.13,13.33,8.35.28-.08.57-.17.88-.15-.95.64-2.04.87-3.16.97-3.81.3-6.94-1.04-9.43-3.91-.19-.22-.44-.37-.68-.55l.05.05h0Z"/>
    <path class="st0" d="M490.71,424.6c-4.29.45-7.88-2.36-9.28-5.27-1.4-2.9-1.41-6.77.11-8.46.42.49.03.9-.09,1.3-1.15,3.8-.24,7.08,2.59,9.81,1.7,1.65,3.86,2.31,6.18,2.52.13,0,.26,0,.39.03.04,0,.08.05.1.07v.02Z"/>
    <path class="st0" d="M498.77,418.73c1.16-3.04,1.3-5.91-.24-8.7-1.52-2.75-3.9-4.29-7.04-4.84,3.04-.53,7.12,2.72,8.33,6.53.86,2.69.42,6.28-1.05,7h0Z"/>
    <path class="st0" d="M493.47,384.41c-1.21-.09-2.43-.18-3.64-.27,1.21.1,2.46-.46,3.63.27h0Z"/>
    <path class="st0" d="M467.9,412.04c0,.99,0,1.97,0,2.97,0-.99,0-1.97,0-2.96h0Z"/>
    <path class="st0" d="M477.24,399.39c-.47.5-.95.99-1.42,1.49-.07-.06-.12-.11-.19-.17.42-.55.85-1.09,1.5-1.42.04.04.07.08.1.1h0Z"/>
    <path class="st0" d="M460.87,390.72c.27-.33.55-.68.83-1.02.07.05.13.1.2.15-.27.33-.55.66-.83.99-.02.02-.08.04-.08.02-.04-.02-.06-.07-.11-.14h0Z"/>
    <path class="st0" d="M495.88,384.43c-.8,0-1.6,0-2.41-.02h0c.79.02,1.59.03,2.39.05l.03-.03h0Z"/>
    <path class="st0" d="M478.04,383.17c.11-.75.69-.65,1.2-.65l-.02-.03c-.4.22-.8.43-1.2.65l.02.03Z"/>
    <path class="st0" d="M481.21,406.98c-.28.33-.57.66-.86,1l.03.02c.24-.38.48-.75.71-1.12.04.04.08.08.11.11h0Z"/>
    <path class="st0" d="M478.01,383.14c-.36.12-.71.24-1.15.39.39-.28.78-.4,1.17-.38.58.04-.02-.02-.02-.02Z"/>
  </g>
  <g>
    <path class="st0" d="M281.57,378.8c8.13,7.88,14.36,19.84,13.46,31.38-.82,10.59-8.14,20.4-18.06,24.21-9.92,3.81-21.92,1.4-29.61-5.92,8.43,3.18,18.29,2.19,26.01-2.46,7.72-4.65,13.17-12.83,14.66-21.73,1.49-8.88-.96-18.32-6.46-25.48h0Z"/>
    <path class="st0" d="M287.7,430.35c-7.79,8.22-19.68,14.58-31.23,13.81-10.59-.71-20.49-7.92-24.4-17.8-3.91-9.87-1.65-21.9,5.59-29.68-3.08,8.47-1.98,18.31,2.75,25.97,4.74,7.66,12.98,13.03,21.89,14.42,8.9,1.39,18.31-1.17,25.4-6.74h0Z"/>
    <path class="st0" d="M234.98,436.19c-8.16-7.85-14.44-19.77-13.59-31.32.78-10.59,8.06-20.44,17.96-24.28,9.9-3.84,21.91-1.49,29.64,5.79-8.44-3.14-18.3-2.12-25.99,2.58-7.7,4.68-13.11,12.89-14.56,21.78-1.45,8.89,1.03,18.32,6.56,25.45h0Z"/>
    <path class="st0" d="M227.91,386.41c6.81-9.04,17.89-16.71,29.45-17.27,10.6-.51,21.26,5.54,26.27,14.9,5.01,9.36,4.13,21.58-2.18,30.12,2.11-8.76-.1-18.43-5.69-25.5-5.57-7.08-14.37-11.47-23.38-11.84-9-.37-18.06,3.23-24.47,9.58h0Z"/>
  </g>
  <g>
    <g>
      <path class="st0" d="M33.52,469.41c-.71,0-1.33-.15-1.85-.44-.46-.24-.83-.58-1.1-1.02-.68.52-1.48.78-2.41.78-1.07,0-1.94-.39-2.61-1.18-.61-.71-.91-1.6-.91-2.66s.36-2.03,1.06-2.76c.68-.69,1.54-1.02,2.61-1.02h1.7v-1c0-.09.03-.16.08-.22s.13-.08.22-.08h1.13c.09,0,.16.03.22.08s.08.13.08.22v5.68c0,.7.15,1.19.45,1.49.29.27.74.4,1.34.4h.53v1.74h-.55,0ZM28.48,462.65c-.75,0-1.33.26-1.75.78-.34.4-.51.89-.51,1.47,0,.71.24,1.29.7,1.72.42.39.98.59,1.66.59.54,0,1.04-.12,1.51-.36-.05-.22-.07-.46-.07-.74v-3.46h-1.55ZM28.1,457.95c-.08,0-.15-.03-.21-.08s-.08-.11-.08-.2v-1.08c0-.08.03-.14.08-.2s.12-.08.21-.08h1.08c.18,0,.27.09.27.27v1.08c0,.18-.09.27-.27.27h-1.08ZM30.36,457.95c-.18,0-.27-.09-.27-.27v-1.08c0-.18.09-.27.27-.27h1.08c.18,0,.27.09.27.27v1.08c0,.18-.09.27-.27.27h-1.08Z"/>
      <path class="st0" d="M39.6,467.68h.53v1.74h-.55c-1.25,0-2.12-.24-2.63-.7-.54.46-1.4.7-2.59.7h-.55v-1.74h.54c.77,0,1.26-.11,1.47-.3.2-.21.3-.62.3-1.25v-4.74c0-.08.03-.15.08-.2s.12-.08.21-.08h1.15c.19,0,.28.09.28.28v4.74c0,.68.1,1.1.3,1.27.2.18.7.26,1.49.28h0ZM36.36,471.44c.18,0,.27.09.27.27v1.08c0,.18-.09.27-.27.27h-1.08c-.08,0-.15-.03-.2-.08s-.08-.11-.08-.2v-1.08c0-.08.03-.14.08-.2s.12-.08.2-.08h1.08ZM38.6,471.44c.08,0,.15.03.2.08s.08.11.08.2v1.08c0,.08-.03.14-.08.2s-.12.08-.2.08h-1.08c-.18,0-.27-.09-.27-.27v-1.08c0-.18.09-.27.27-.27h1.08Z"/>
      <path class="st0" d="M50.25,467.68h.54v1.74h-.55c-1.05,0-1.83-.16-2.34-.47-.36.31-1.01.47-1.94.47h-6.17v-1.74h6.08c.39,0,.64-.05.74-.15s.15-.34.15-.72v-2.41c0-.82-.19-1.4-.57-1.74-.3-.28-.74-.42-1.33-.42-.85,0-1.93.27-3.25.81-.05,0-.08.02-.11.02-.1,0-.17-.05-.21-.13l-.25-.64s-.02-.07-.02-.1c0-.1.05-.17.13-.2,1.45-.74,2.79-1.11,4.03-1.11,1.11,0,1.95.3,2.51.91.53.56.79,1.37.79,2.43v1.92c0,.68.09,1.1.29,1.27.2.18.69.26,1.48.28h0Z"/>
      <path class="st0" d="M68.79,467.68h.54v1.74h-.55c-1.34,0-2.28-.28-2.78-.85-.59.56-1.44.85-2.53.85h-7.21c-1.09,0-1.94-.27-2.53-.81-.53.54-1.43.81-2.72.81h-.55v-1.74h.51c.79,0,1.28-.1,1.49-.3.22-.21.32-.62.32-1.25v-2.56c0-.19.09-.29.28-.29h1.15c.19,0,.28.09.28.29v2.24c0,.62.07,1.05.21,1.32.14.26.39.42.77.49.99-2.23,2.21-3.92,3.66-5.1,1.31-1.05,2.66-1.58,4.08-1.58,1.11,0,2.04.39,2.78,1.15.7.73,1.04,1.66,1.04,2.8v1.25c0,.68.09,1.1.29,1.27.2.18.69.26,1.48.28h0ZM63.43,467.68c.77,0,1.29-.16,1.53-.47.23-.27.34-.76.34-1.49v-.74c0-.85-.24-1.48-.69-1.89-.39-.36-.93-.54-1.62-.54-1.14,0-2.26.53-3.37,1.57-.98.92-1.78,2.11-2.4,3.55h6.2,0Z"/>
      <path class="st0" d="M68.97,469.41v-1.74h.54c.47,0,.81-.04,1.01-.07.2-.04.35-.1.46-.21.2-.19.3-.62.3-1.28v-9c0-.08.03-.15.08-.21s.12-.08.21-.08h1.15c.19,0,.28.09.28.29v9.06c0,1.3-.33,2.18-1,2.66-.53.37-1.35.55-2.48.55h-.55,0Z"/>
      <path class="st0" d="M76,469.41c-.09,0-.16-.03-.22-.08s-.08-.13-.08-.22v-11.99c0-.08.03-.15.09-.21s.13-.08.21-.08h1.13c.08,0,.15.03.21.08.07.06.09.12.09.21v11.99c0,.09-.03.16-.08.22s-.13.08-.22.08h-1.13Z"/>
      <path class="st0" d="M87.66,469.41c-1.54,0-2.71-.46-3.51-1.38-.67-.75-1-1.73-1-2.93,0-.45.07-1.01.2-1.66.15-.74.32-1.11.53-1.11.02,0,.05,0,.07.02l.68.12c.17.04.25.13.25.28,0,.02,0,.05-.02.08-.17.64-.25,1.26-.25,1.85,0,.99.28,1.75.85,2.28.53.48,1.26.72,2.21.72h5.08c.78,0,1.26-.11,1.47-.3.21-.21.3-.62.3-1.25v-4.74c0-.08.03-.15.09-.2.07-.06.13-.08.21-.08h1.13c.08,0,.15.03.21.08.07.06.09.12.09.2v4.8c0,1.26-.33,2.13-1,2.63-.54.39-1.36.59-2.48.59h-5.1,0ZM88.15,460.63c-.08,0-.15-.03-.21-.08s-.08-.11-.08-.2v-1.08c0-.08.03-.14.08-.2s.12-.08.21-.08h1.08c.18,0,.27.09.27.27v1.08c0,.18-.09.27-.27.27h-1.08ZM89.3,458.42c-.16,0-.24-.08-.24-.25v-1.02c0-.17.08-.25.24-.25h1.02c.07,0,.12.03.18.08.05.05.08.11.08.18v1.02c0,.07-.03.12-.08.18-.05.05-.11.08-.18.08h-1.02ZM90.39,460.63c-.18,0-.27-.09-.27-.27v-1.08c0-.18.08-.27.27-.27h1.08c.08,0,.15.03.21.08s.08.11.08.2v1.08c0,.08-.03.14-.08.2-.06.05-.12.08-.21.08h-1.08Z"/>
      <path class="st0" d="M102.12,470.15c0,1.2-.34,2.09-1.02,2.64-.55.44-1.29.66-2.21.66-.52,0-1-.04-1.45-.11-.63-.11-.94-.27-.94-.49v-.05l.12-.71c.04-.17.12-.25.27-.25.04,0,.07,0,.1.02.56.15,1.06.22,1.5.22.64,0,1.12-.19,1.43-.57.3-.39.45-1,.45-1.8v-8.31c0-.08.03-.15.09-.2.07-.06.13-.08.21-.08h1.13c.08,0,.15.03.21.08.07.06.09.12.09.2v8.76h0Z"/>
      <path class="st0" d="M105.12,469.41c-.09,0-.16-.03-.22-.08s-.08-.13-.08-.22v-11.99c0-.08.03-.15.09-.21s.13-.08.21-.08h1.13c.08,0,.15.03.21.08.07.06.09.12.09.21v11.99c0,.09-.03.16-.08.22s-.13.08-.22.08h-1.13Z"/>
      <path class="st0" d="M116.35,467.68h2.21v1.74h-2.21v.7c0,2.24-1.05,3.36-3.15,3.36-.52,0-1.16-.08-1.92-.24-.86-.17-1.28-.37-1.28-.59v-.05l.12-.71c.04-.17.12-.25.27-.25.04,0,.07,0,.1.02.82.27,1.52.4,2.11.4.71,0,1.25-.2,1.6-.61.29-.34.44-.79.44-1.36v-.66h-1.49c-1.44,0-2.52-.48-3.23-1.45-.55-.71-.83-1.61-.83-2.66,0-1.32.36-2.35,1.06-3.1.68-.73,1.61-1.1,2.8-1.1h3.12c.19,0,.28.09.28.28v6.29h-.02ZM113.03,467.81h1.6v-5.1h-1.62c-.74,0-1.31.29-1.7.87-.33.46-.49,1.04-.49,1.75s.21,1.33.62,1.8c.4.45.93.68,1.59.68Z"/>
      <path class="st0" d="M131.25,467.68h.53v1.74h-.55c-1.34,0-2.28-.28-2.8-.85-.67.56-1.66.85-3.02.85h-7.18v-1.74h7.33c.8,0,1.36-.16,1.7-.47.33-.3.49-.8.49-1.49,0-.8-.22-1.34-.64-1.64-.33-.23-.85-.34-1.55-.34h-4.79c-.31,0-.56-.09-.76-.29s-.28-.46-.28-.78c0-.45.21-.86.62-1.23l4.18-3.66s.08-.07.13-.07c.06,0,.1.03.15.08l.64.68s.07.09.07.15c0,.07-.03.12-.08.17l-3.69,3.22h4.1c1.21,0,2.13.34,2.76,1.02.58.63.87,1.51.87,2.65,0,.23,0,.39-.02.49,0,.65.1,1.06.3,1.23s.7.26,1.49.27h0Z"/>
      <path class="st0" d="M131.41,469.41v-1.74h.54c.47,0,.81-.04,1.01-.07.2-.04.35-.1.46-.21.2-.19.3-.62.3-1.28v-9c0-.08.03-.15.08-.21s.12-.08.21-.08h1.15c.19,0,.28.09.28.29v9.06c0,1.3-.33,2.18-1,2.66-.53.37-1.35.55-2.48.55h-.55,0Z"/>
      <path class="st0" d="M138.45,469.41c-.09,0-.16-.03-.22-.08s-.08-.13-.08-.22v-11.99c0-.08.03-.15.09-.21s.13-.08.21-.08h1.13c.08,0,.15.03.21.08.07.06.09.12.09.21v11.99c0,.09-.03.16-.08.22s-.13.08-.22.08h-1.13Z"/>
      <path class="st0" d="M149.38,461.05c.08,0,.15.03.2.09s.08.13.08.21v8.74c0,2.24-1.05,3.36-3.15,3.36-.52,0-1.16-.08-1.92-.24-.86-.17-1.28-.37-1.28-.59v-.05l.12-.71c.04-.17.12-.25.27-.25.04,0,.07,0,.1.02.82.27,1.52.4,2.11.4.71,0,1.25-.2,1.6-.61.29-.34.44-.79.44-1.36v-.66h-1.49c-1.44,0-2.52-.48-3.23-1.45-.55-.71-.83-1.61-.83-2.66,0-1.33.36-2.37,1.06-3.13.68-.74,1.61-1.11,2.8-1.11h3.12-.02ZM147.95,467.81v-5.16h-1.62c-.74,0-1.31.3-1.7.89-.33.48-.49,1.08-.49,1.79s.21,1.33.62,1.8c.4.45.93.68,1.59.68h1.6,0Z"/>
      <path class="st0" d="M159.9,469.41c-1.54,0-2.71-.46-3.51-1.38-.67-.75-1-1.73-1-2.93,0-.45.07-1.01.2-1.66.15-.74.32-1.11.53-1.11.02,0,.05,0,.07.02l.68.12c.17.04.25.13.25.28,0,.02,0,.05-.02.08-.17.64-.25,1.26-.25,1.85,0,.99.28,1.75.85,2.28.53.48,1.26.72,2.21.72h5.08c.78,0,1.26-.11,1.47-.3.21-.21.3-.62.3-1.25v-4.74c0-.08.03-.15.09-.2.07-.06.13-.08.21-.08h1.13c.08,0,.15.03.21.08.07.06.09.12.09.2v4.8c0,1.26-.33,2.13-1,2.63-.54.39-1.36.59-2.48.59h-5.1,0ZM160.39,460.63c-.08,0-.15-.03-.21-.08s-.08-.11-.08-.2v-1.08c0-.08.03-.14.08-.2s.12-.08.21-.08h1.08c.18,0,.27.09.27.27v1.08c0,.18-.09.27-.27.27h-1.08ZM162.63,460.63c-.18,0-.27-.09-.27-.27v-1.08c0-.18.08-.27.27-.27h1.08c.08,0,.15.03.21.08s.08.11.08.2v1.08c0,.08-.03.14-.08.2-.06.05-.12.08-.21.08h-1.08Z"/>
      <path class="st0" d="M174.63,469.41c-1.28,0-2.18-.25-2.7-.76-.51-.5-.76-1.32-.76-2.48v-9.05c0-.08.03-.15.09-.21s.13-.08.21-.08h1.13c.08,0,.15.03.21.08.07.06.09.12.09.21v9c0,.68.09,1.09.28,1.26.19.16.68.26,1.48.29h.54v1.74h-.57,0Z"/>
      <path class="st0" d="M177.38,467.68c-.2-.54-.3-1.1-.3-1.68,0-1.26.39-2.29,1.18-3.12.71-.76,1.63-1.15,2.72-1.15,1.31,0,2.31.5,3.04,1.5.56.79.85,1.72.85,2.8,0,1.26-.37,2.3-1.11,3.13-.7.8-1.61,1.19-2.73,1.19-.96,0-1.83-.31-2.63-.94h-3.51v-1.74h2.51-.02ZM180.97,468.82c.68,0,1.2-.32,1.59-.96.29-.51.44-1.1.44-1.79,0-.83-.21-1.51-.62-2.06-.37-.47-.84-.71-1.4-.71-.65,0-1.18.31-1.57.94-.31.52-.47,1.14-.47,1.87,0,.8.19,1.45.55,1.96.37.5.86.74,1.49.74h0Z"/>
      <path class="st0" d="M190.39,470.15c0,1.2-.34,2.09-1.02,2.64-.55.44-1.29.66-2.21.66-.52,0-1-.04-1.45-.11-.63-.11-.94-.27-.94-.49v-.05l.12-.71c.04-.17.12-.25.27-.25.04,0,.07,0,.1.02.56.15,1.06.22,1.5.22.64,0,1.12-.19,1.43-.57.3-.39.45-1,.45-1.8v-8.31c0-.08.03-.15.09-.2.07-.06.13-.08.21-.08h1.13c.08,0,.15.03.21.08.07.06.09.12.09.2v8.76h0ZM189,459.07c-.08,0-.15-.03-.21-.08s-.08-.11-.08-.2v-1.08c0-.08.03-.14.08-.2.06-.05.12-.08.21-.08h1.08c.08,0,.15.03.2.08s.08.11.08.2v1.08c0,.08-.03.14-.08.2-.06.05-.12.08-.2.08h-1.08Z"/>
      <path class="st0" d="M201.52,456.84c.19,0,.28.09.28.29v9.15c0,1.26-.33,2.12-1,2.58-.53.37-1.35.55-2.48.55h-5.87c-.09,0-.16-.03-.22-.08s-.08-.13-.08-.22v-1.13c0-.09.03-.16.08-.22s.13-.08.22-.08h2.9v-7.04c0-.09.03-.16.08-.22s.13-.08.22-.08h1.13c.08,0,.16.03.22.08s.08.13.08.22v7.04h1.21c.47,0,.81-.04,1.01-.07.2-.04.35-.09.46-.19.2-.18.3-.58.3-1.21v-9.08c0-.08.03-.15.08-.21s.12-.08.21-.08h1.17ZM194.57,459.56l-.34-.32s-.04-.05-.04-.08c0-.08.08-.2.25-.36s.34-.28.53-.39c-.29-.31-.44-.72-.44-1.23,0-.54.16-.96.47-1.26.28-.27.63-.4,1.06-.4.29,0,.57.04.85.1.27.07.4.14.4.22v.04l-.08.36c0,.06-.05.08-.12.08h-.05c-.28-.06-.53-.08-.72-.08-.61,0-.91.3-.91.89,0,.28.08.51.22.68.15.17.35.25.61.25h1.13c.09,0,.13.05.13.13v.62c0,.09-.05.13-.13.13h-.85c-.44,0-.77.06-1,.13-.23.08-.49.24-.79.49-.04.04-.07.05-.1.05-.02,0-.05-.02-.08-.05h0Z"/>
      <path class="st0" d="M204.8,469.41c-.09,0-.16-.03-.22-.08s-.08-.13-.08-.22v-11.99c0-.08.03-.15.09-.21s.13-.08.21-.08h1.13c.08,0,.15.03.21.08.07.06.09.12.09.21v11.99c0,.09-.03.16-.08.22s-.13.08-.22.08h-1.13Z"/>
      <path class="st0" d="M219.31,465.66c0,2.62-1.22,3.93-3.66,3.93-1.28,0-2.24-.41-2.89-1.25-.55-.71-.83-1.69-.83-2.93,0-1.38.39-2.46,1.15-3.23.7-.71,1.64-1.06,2.83-1.06h3.08c.08,0,.15.03.21.08s.09.12.09.2v4.27h0ZM215.87,462.53c-.75,0-1.33.31-1.74.93-.34.52-.51,1.18-.51,1.97s.2,1.45.59,1.92c.35.43.83.64,1.43.64.9,0,1.48-.3,1.74-.91.15-.36.22-1,.22-1.92v-2.63h-1.74,0ZM214.53,459.07c-.08,0-.15-.03-.2-.08-.06-.05-.08-.11-.08-.2v-1.08c0-.08.03-.14.08-.2.06-.05.12-.08.2-.08h1.08c.18,0,.27.09.27.27v1.08c0,.18-.09.27-.27.27h-1.08ZM216.78,459.07c-.18,0-.27-.09-.27-.27v-1.08c0-.18.09-.27.27-.27h1.08c.18,0,.27.09.27.27v1.08c0,.18-.09.27-.27.27h-1.08Z"/>
      <path class="st0" d="M224.71,470.15c0,1.2-.34,2.09-1.02,2.64-.55.44-1.29.66-2.21.66-.52,0-1-.04-1.45-.11-.63-.11-.94-.27-.94-.49v-.05l.12-.71c.04-.17.12-.25.27-.25.04,0,.07,0,.1.02.56.15,1.06.22,1.5.22.64,0,1.12-.19,1.43-.57.3-.39.45-1,.45-1.8v-8.31c0-.08.03-.15.09-.2.07-.06.13-.08.21-.08h1.13c.08,0,.15.03.21.08.07.06.09.12.09.2v8.76h0Z"/>
      <path class="st0" d="M227.71,469.41c-.09,0-.16-.03-.22-.08s-.08-.13-.08-.22v-11.99c0-.08.03-.15.09-.21s.13-.08.21-.08h1.13c.08,0,.15.03.21.08.07.06.09.12.09.21v11.99c0,.09-.03.16-.08.22s-.13.08-.22.08h-1.13Z"/>
      <path class="st0" d="M231.47,469.41c-.09,0-.16-.03-.22-.08s-.08-.13-.08-.22v-1.13c0-.09.03-.16.08-.22s.13-.08.22-.08h4c.74,0,1.23-.16,1.49-.47.21-.25.3-.73.3-1.42v-1.11c0-.91-.13-1.56-.4-1.94-.24-.31-.59-.47-1.08-.47-.39,0-.96.11-1.68.36-.02,0-.05.02-.07.02-.11,0-.19-.07-.22-.19l-.2-.76s-.02-.05-.02-.07c0-.2.41-.39,1.25-.54.56-.11.99-.17,1.28-.17,1.91,0,2.87,1.09,2.87,3.27v1.55c0,2.45-1.11,3.68-3.34,3.68h-4.16v-.02Z"/>
      <path class="st0" d="M249.75,456.84c.19,0,.28.09.28.29v9.15c0,1.26-.33,2.12-1,2.58-.53.37-1.35.55-2.48.55h-5.87c-.09,0-.16-.03-.22-.08s-.08-.13-.08-.22v-1.13c0-.09.03-.16.08-.22s.13-.08.22-.08h2.9v-7.04c0-.09.03-.16.08-.22s.13-.08.22-.08h1.13c.08,0,.16.03.22.08s.08.13.08.22v7.04h1.21c.47,0,.81-.04,1.01-.07.2-.04.35-.09.46-.19.2-.18.3-.58.3-1.21v-9.08c0-.08.03-.15.08-.21s.12-.08.21-.08h1.17ZM245.74,474.06c.08,0,.13.05.13.13v.62c0,.09-.05.13-.13.13h-.85c-.43,0-.75.06-.97.12-.22.08-.48.23-.78.44,0,0,0,.02-.02.02l-.02.02s-.07.05-.1.05c-.02,0-.05-.02-.08-.05l-.34-.3s-.04-.05-.04-.08c0-.08.08-.2.25-.36s.34-.28.53-.39c-.29-.33-.44-.73-.44-1.23,0-.54.16-.96.47-1.26.28-.27.63-.4,1.06-.4.29,0,.57.04.85.1.27.07.4.14.4.22v.04l-.08.34c0,.07-.06.1-.13.1h-.04c-.34-.07-.58-.1-.72-.1-.6,0-.91.3-.91.91,0,.28.08.51.22.68.15.17.35.25.61.25h1.14Z"/>
      <path class="st0" d="M268.36,467.68v1.74h-1.4c-.07,1.69-.67,2.97-1.79,3.81-.98.71-2.3,1.08-3.98,1.08-1.84,0-3.25-.44-4.23-1.33-.86-.8-1.3-1.87-1.3-3.22,0-1.14.15-1.7.45-1.7h.07l.93.17c.15,0,.22.1.22.27v.07c-.05.23-.07.51-.07.85,0,2.12,1.32,3.19,3.95,3.19,1.38,0,2.4-.28,3.04-.85.59-.51.92-1.28.98-2.32h-1.4c-.08,0-.15-.03-.21-.08-.07-.06-.09-.13-.09-.22l-.02-1.11c0-.22.1-.32.32-.32h4.53v-.02ZM260.77,475.75c.18,0,.27.09.27.27v1.08c0,.18-.09.27-.27.27h-1.08c-.08,0-.15-.03-.2-.08-.06-.05-.08-.11-.08-.2v-1.08c0-.08.03-.14.08-.2.06-.05.12-.08.2-.08h1.08ZM263.04,475.75c.18,0,.27.09.27.27v1.08c0,.18-.09.27-.27.27h-1.08c-.18,0-.27-.09-.27-.27v-1.08c0-.18.09-.27.27-.27h1.08Z"/>
      <path class="st0" d="M273.84,467.68h.53v1.74h-.55c-1.25,0-2.12-.24-2.63-.7-.54.46-1.4.7-2.59.7h-.55v-1.74h.54c.77,0,1.26-.11,1.47-.3.2-.21.3-.62.3-1.25v-4.74c0-.08.03-.15.08-.2s.12-.08.21-.08h1.15c.19,0,.28.09.28.28v4.74c0,.68.1,1.1.3,1.27.2.18.7.26,1.49.28ZM270.61,459.07c-.08,0-.15-.03-.21-.08s-.08-.11-.08-.2v-1.08c0-.08.03-.14.08-.2s.12-.08.21-.08h1.08c.08,0,.15.03.2.08s.08.11.08.2v1.08c0,.08-.03.14-.08.2-.06.05-.12.08-.2.08h-1.08Z"/>
      <path class="st0" d="M277.5,464.69c.91-1.28,1.92-2.24,3.04-2.89.99-.58,2-.87,3.06-.87,1.11,0,2.04.39,2.78,1.15.7.73,1.04,1.66,1.04,2.8v.86c0,1.25-.34,2.19-1.02,2.83-.61.56-1.46.85-2.55.85h-9.82v-1.74h1.76v-10.55c0-.08.03-.15.08-.21s.12-.08.2-.08h1.15c.19,0,.28.09.28.29v7.57h0ZM285.68,465.72v-.74c0-.85-.24-1.48-.7-1.89-.39-.36-.93-.54-1.62-.54-1.16,0-2.32.53-3.49,1.57-1.05.94-1.89,2.13-2.51,3.55h6.44c.77,0,1.29-.16,1.53-.47.23-.27.34-.76.34-1.49Z"/>
      <path class="st0" d="M297.03,467.68h2.21v1.74h-2.21v.7c0,2.24-1.05,3.36-3.15,3.36-.52,0-1.16-.08-1.92-.24-.86-.17-1.28-.37-1.28-.59v-.05l.12-.71c.04-.17.12-.25.27-.25.04,0,.07,0,.1.02.82.27,1.52.4,2.11.4.71,0,1.25-.2,1.6-.61.29-.34.44-.79.44-1.36v-.66h-1.49c-1.44,0-2.52-.48-3.23-1.45-.55-.71-.83-1.61-.83-2.66,0-1.32.36-2.35,1.06-3.1.68-.73,1.61-1.1,2.8-1.1h3.12c.19,0,.28.09.28.28v6.29h-.02ZM293.71,467.81h1.6v-5.1h-1.62c-.74,0-1.31.29-1.7.87-.33.46-.49,1.04-.49,1.75s.21,1.33.62,1.8c.4.45.93.68,1.59.68h0Z"/>
      <path class="st0" d="M298.9,469.41v-1.74h.54c.47,0,.81-.04,1.01-.07.2-.04.35-.1.46-.21.2-.19.3-.62.3-1.28v-9c0-.08.03-.15.08-.21s.12-.08.21-.08h1.15c.19,0,.28.09.28.29v9.06c0,1.3-.33,2.18-1,2.66-.53.37-1.35.55-2.48.55h-.55,0Z"/>
      <path class="st0" d="M305.92,469.41c-.09,0-.16-.03-.22-.08s-.08-.13-.08-.22v-11.99c0-.08.03-.15.09-.21s.13-.08.21-.08h1.13c.08,0,.15.03.21.08.07.06.09.12.09.21v11.99c0,.09-.03.16-.08.22s-.13.08-.22.08h-1.13Z"/>
      <path class="st0" d="M318.38,467.68h.54v1.74h-.57c-.71,0-1.3-.07-1.74-.2v.94c0,1.2-.34,2.09-1.02,2.64-.55.44-1.29.66-2.21.66-.52,0-1-.04-1.45-.11-.63-.11-.94-.27-.94-.49v-.05l.12-.71c.04-.17.12-.25.27-.25.04,0,.07,0,.1.02.56.15,1.06.22,1.5.22.64,0,1.12-.19,1.43-.57.3-.39.45-1,.45-1.8v-8.31c0-.08.03-.15.09-.2.07-.06.13-.08.21-.08h1.13c.08,0,.15.03.21.08.07.06.09.12.09.2v4.74c0,.74.13,1.19.4,1.36.2.11.66.18,1.36.19h0ZM315.21,459.07c-.08,0-.15-.03-.21-.08s-.08-.11-.08-.2v-1.08c0-.08.03-.14.08-.2.06-.05.12-.08.21-.08h1.08c.18,0,.27.09.27.27v1.08c0,.18-.09.27-.27.27h-1.08Z"/>
      <path class="st0" d="M318.59,469.41v-1.74h7.33c.8,0,1.36-.16,1.7-.47.33-.3.49-.8.49-1.49,0-.8-.22-1.34-.64-1.64-.33-.23-.85-.34-1.55-.34h-4.79c-.31,0-.56-.09-.76-.29s-.28-.46-.28-.78c0-.45.21-.86.62-1.23l4.18-3.66s.08-.07.13-.07c.06,0,.1.03.15.08l.64.68s.07.09.07.15c0,.07-.03.12-.08.17l-3.69,3.22h4.1c1.21,0,2.13.34,2.76,1.02.58.63.87,1.51.87,2.65,0,1.39-.39,2.39-1.19,2.98-.65.5-1.62.74-2.89.74h-7.18,0Z"/>
      <path class="st0" d="M336.68,467.68h.54v1.74h-.57c-.71,0-1.3-.07-1.74-.2v.94c0,1.2-.34,2.09-1.02,2.64-.55.44-1.29.66-2.21.66-.52,0-1-.04-1.45-.11-.63-.11-.94-.27-.94-.49v-.05l.12-.71c.04-.17.12-.25.27-.25.04,0,.07,0,.1.02.56.15,1.06.22,1.5.22.64,0,1.12-.19,1.43-.57.3-.39.45-1,.45-1.8v-8.31c0-.08.03-.15.09-.2.07-.06.13-.08.21-.08h1.13c.08,0,.15.03.21.08.07.06.09.12.09.2v4.74c0,.74.13,1.19.4,1.36.2.11.66.18,1.36.19h0Z"/>
      <path class="st0" d="M345.52,469.41c-.69.63-1.51.94-2.49.94s-1.83-.31-2.63-.94h-3.51v-1.74h2.51c-.2-.54-.3-1.1-.3-1.68,0-1.26.39-2.29,1.18-3.12.71-.76,1.63-1.15,2.72-1.15,1.31,0,2.31.5,3.04,1.5.56.79.85,1.72.85,2.8,0,.58-.09,1.14-.28,1.65h2.49v1.74h-3.57ZM342.99,468.82c.68,0,1.2-.32,1.59-.96.29-.51.44-1.1.44-1.79,0-.83-.21-1.51-.62-2.06-.37-.47-.84-.71-1.4-.71-.65,0-1.18.31-1.57.94-.31.52-.47,1.14-.47,1.87,0,.8.19,1.45.55,1.96.37.5.86.74,1.49.74h0Z"/>
      <path class="st0" d="M348.74,469.41v-1.74h.54c.47,0,.81-.04,1.01-.07.2-.04.35-.1.46-.21.2-.19.3-.62.3-1.28v-9c0-.08.03-.15.08-.21s.12-.08.21-.08h1.15c.19,0,.28.09.28.29v9.06c0,1.3-.33,2.18-1,2.66-.53.37-1.35.55-2.48.55h-.55,0Z"/>
      <path class="st0" d="M355.77,469.41c-.09,0-.16-.03-.22-.08s-.08-.13-.08-.22v-11.99c0-.08.03-.15.09-.21s.13-.08.21-.08h1.13c.08,0,.15.03.21.08.07.06.09.12.09.21v11.99c0,.09-.03.16-.08.22s-.13.08-.22.08h-1.13Z"/>
    </g>
    <g>
      <path class="st0" d="M33.52,469.41c-.71,0-1.33-.15-1.85-.44-.46-.24-.83-.58-1.1-1.02-.68.52-1.48.78-2.41.78-1.07,0-1.94-.39-2.61-1.18-.61-.71-.91-1.6-.91-2.66s.36-2.03,1.06-2.76c.68-.69,1.54-1.02,2.61-1.02h1.7v-1c0-.09.03-.16.08-.22s.13-.08.22-.08h1.13c.09,0,.16.03.22.08s.08.13.08.22v5.68c0,.7.15,1.19.45,1.49.29.27.74.4,1.34.4h.53v1.74h-.55,0ZM28.48,462.65c-.75,0-1.33.26-1.75.78-.34.4-.51.89-.51,1.47,0,.71.24,1.29.7,1.72.42.39.98.59,1.66.59.54,0,1.04-.12,1.51-.36-.05-.22-.07-.46-.07-.74v-3.46h-1.55ZM28.1,457.95c-.08,0-.15-.03-.21-.08s-.08-.11-.08-.2v-1.08c0-.08.03-.14.08-.2s.12-.08.21-.08h1.08c.18,0,.27.09.27.27v1.08c0,.18-.09.27-.27.27h-1.08ZM30.36,457.95c-.18,0-.27-.09-.27-.27v-1.08c0-.18.09-.27.27-.27h1.08c.18,0,.27.09.27.27v1.08c0,.18-.09.27-.27.27h-1.08Z"/>
      <path class="st0" d="M39.6,467.68h.53v1.74h-.55c-1.25,0-2.12-.24-2.63-.7-.54.46-1.4.7-2.59.7h-.55v-1.74h.54c.77,0,1.26-.11,1.47-.3.2-.21.3-.62.3-1.25v-4.74c0-.08.03-.15.08-.2s.12-.08.21-.08h1.15c.19,0,.28.09.28.28v4.74c0,.68.1,1.1.3,1.27.2.18.7.26,1.49.28h0ZM36.36,471.44c.18,0,.27.09.27.27v1.08c0,.18-.09.27-.27.27h-1.08c-.08,0-.15-.03-.2-.08s-.08-.11-.08-.2v-1.08c0-.08.03-.14.08-.2s.12-.08.2-.08h1.08ZM38.6,471.44c.08,0,.15.03.2.08s.08.11.08.2v1.08c0,.08-.03.14-.08.2s-.12.08-.2.08h-1.08c-.18,0-.27-.09-.27-.27v-1.08c0-.18.09-.27.27-.27h1.08Z"/>
      <path class="st0" d="M50.25,467.68h.54v1.74h-.55c-1.05,0-1.83-.16-2.34-.47-.36.31-1.01.47-1.94.47h-6.17v-1.74h6.08c.39,0,.64-.05.74-.15s.15-.34.15-.72v-2.41c0-.82-.19-1.4-.57-1.74-.3-.28-.74-.42-1.33-.42-.85,0-1.93.27-3.25.81-.05,0-.08.02-.11.02-.1,0-.17-.05-.21-.13l-.25-.64s-.02-.07-.02-.1c0-.1.05-.17.13-.2,1.45-.74,2.79-1.11,4.03-1.11,1.11,0,1.95.3,2.51.91.53.56.79,1.37.79,2.43v1.92c0,.68.09,1.1.29,1.27.2.18.69.26,1.48.28h0Z"/>
      <path class="st0" d="M68.79,467.68h.54v1.74h-.55c-1.34,0-2.28-.28-2.78-.85-.59.56-1.44.85-2.53.85h-7.21c-1.09,0-1.94-.27-2.53-.81-.53.54-1.43.81-2.72.81h-.55v-1.74h.51c.79,0,1.28-.1,1.49-.3.22-.21.32-.62.32-1.25v-2.56c0-.19.09-.29.28-.29h1.15c.19,0,.28.09.28.29v2.24c0,.62.07,1.05.21,1.32.14.26.39.42.77.49.99-2.23,2.21-3.92,3.66-5.1,1.31-1.05,2.66-1.58,4.08-1.58,1.11,0,2.04.39,2.78,1.15.7.73,1.04,1.66,1.04,2.8v1.25c0,.68.09,1.1.29,1.27.2.18.69.26,1.48.28h0ZM63.43,467.68c.77,0,1.29-.16,1.53-.47.23-.27.34-.76.34-1.49v-.74c0-.85-.24-1.48-.69-1.89-.39-.36-.93-.54-1.62-.54-1.14,0-2.26.53-3.37,1.57-.98.92-1.78,2.11-2.4,3.55h6.2,0Z"/>
      <path class="st0" d="M68.97,469.41v-1.74h.54c.47,0,.81-.04,1.01-.07.2-.04.35-.1.46-.21.2-.19.3-.62.3-1.28v-9c0-.08.03-.15.08-.21s.12-.08.21-.08h1.15c.19,0,.28.09.28.29v9.06c0,1.3-.33,2.18-1,2.66-.53.37-1.35.55-2.48.55h-.55,0Z"/>
      <path class="st0" d="M76,469.41c-.09,0-.16-.03-.22-.08s-.08-.13-.08-.22v-11.99c0-.08.03-.15.09-.21s.13-.08.21-.08h1.13c.08,0,.15.03.21.08.07.06.09.12.09.21v11.99c0,.09-.03.16-.08.22s-.13.08-.22.08h-1.13Z"/>
      <path class="st0" d="M87.66,469.41c-1.54,0-2.71-.46-3.51-1.38-.67-.75-1-1.73-1-2.93,0-.45.07-1.01.2-1.66.15-.74.32-1.11.53-1.11.02,0,.05,0,.07.02l.68.12c.17.04.25.13.25.28,0,.02,0,.05-.02.08-.17.64-.25,1.26-.25,1.85,0,.99.28,1.75.85,2.28.53.48,1.26.72,2.21.72h5.08c.78,0,1.26-.11,1.47-.3.21-.21.3-.62.3-1.25v-4.74c0-.08.03-.15.09-.2.07-.06.13-.08.21-.08h1.13c.08,0,.15.03.21.08.07.06.09.12.09.2v4.8c0,1.26-.33,2.13-1,2.63-.54.39-1.36.59-2.48.59h-5.1,0ZM88.15,460.63c-.08,0-.15-.03-.21-.08s-.08-.11-.08-.2v-1.08c0-.08.03-.14.08-.2s.12-.08.21-.08h1.08c.18,0,.27.09.27.27v1.08c0,.18-.09.27-.27.27h-1.08ZM89.3,458.42c-.16,0-.24-.08-.24-.25v-1.02c0-.17.08-.25.24-.25h1.02c.07,0,.12.03.18.08.05.05.08.11.08.18v1.02c0,.07-.03.12-.08.18-.05.05-.11.08-.18.08h-1.02ZM90.39,460.63c-.18,0-.27-.09-.27-.27v-1.08c0-.18.08-.27.27-.27h1.08c.08,0,.15.03.21.08s.08.11.08.2v1.08c0,.08-.03.14-.08.2-.06.05-.12.08-.21.08h-1.08Z"/>
      <path class="st0" d="M102.12,470.15c0,1.2-.34,2.09-1.02,2.64-.55.44-1.29.66-2.21.66-.52,0-1-.04-1.45-.11-.63-.11-.94-.27-.94-.49v-.05l.12-.71c.04-.17.12-.25.27-.25.04,0,.07,0,.1.02.56.15,1.06.22,1.5.22.64,0,1.12-.19,1.43-.57.3-.39.45-1,.45-1.8v-8.31c0-.08.03-.15.09-.2.07-.06.13-.08.21-.08h1.13c.08,0,.15.03.21.08.07.06.09.12.09.2v8.76h0Z"/>
      <path class="st0" d="M105.12,469.41c-.09,0-.16-.03-.22-.08s-.08-.13-.08-.22v-11.99c0-.08.03-.15.09-.21s.13-.08.21-.08h1.13c.08,0,.15.03.21.08.07.06.09.12.09.21v11.99c0,.09-.03.16-.08.22s-.13.08-.22.08h-1.13Z"/>
      <path class="st0" d="M116.35,467.68h2.21v1.74h-2.21v.7c0,2.24-1.05,3.36-3.15,3.36-.52,0-1.16-.08-1.92-.24-.86-.17-1.28-.37-1.28-.59v-.05l.12-.71c.04-.17.12-.25.27-.25.04,0,.07,0,.1.02.82.27,1.52.4,2.11.4.71,0,1.25-.2,1.6-.61.29-.34.44-.79.44-1.36v-.66h-1.49c-1.44,0-2.52-.48-3.23-1.45-.55-.71-.83-1.61-.83-2.66,0-1.32.36-2.35,1.06-3.1.68-.73,1.61-1.1,2.8-1.1h3.12c.19,0,.28.09.28.28v6.29h-.02ZM113.03,467.81h1.6v-5.1h-1.62c-.74,0-1.31.29-1.7.87-.33.46-.49,1.04-.49,1.75s.21,1.33.62,1.8c.4.45.93.68,1.59.68Z"/>
      <path class="st0" d="M131.25,467.68h.53v1.74h-.55c-1.34,0-2.28-.28-2.8-.85-.67.56-1.66.85-3.02.85h-7.18v-1.74h7.33c.8,0,1.36-.16,1.7-.47.33-.3.49-.8.49-1.49,0-.8-.22-1.34-.64-1.64-.33-.23-.85-.34-1.55-.34h-4.79c-.31,0-.56-.09-.76-.29s-.28-.46-.28-.78c0-.45.21-.86.62-1.23l4.18-3.66s.08-.07.13-.07c.06,0,.1.03.15.08l.64.68s.07.09.07.15c0,.07-.03.12-.08.17l-3.69,3.22h4.1c1.21,0,2.13.34,2.76,1.02.58.63.87,1.51.87,2.65,0,.23,0,.39-.02.49,0,.65.1,1.06.3,1.23s.7.26,1.49.27h0Z"/>
      <path class="st0" d="M131.41,469.41v-1.74h.54c.47,0,.81-.04,1.01-.07.2-.04.35-.1.46-.21.2-.19.3-.62.3-1.28v-9c0-.08.03-.15.08-.21s.12-.08.21-.08h1.15c.19,0,.28.09.28.29v9.06c0,1.3-.33,2.18-1,2.66-.53.37-1.35.55-2.48.55h-.55,0Z"/>
      <path class="st0" d="M138.45,469.41c-.09,0-.16-.03-.22-.08s-.08-.13-.08-.22v-11.99c0-.08.03-.15.09-.21s.13-.08.21-.08h1.13c.08,0,.15.03.21.08.07.06.09.12.09.21v11.99c0,.09-.03.16-.08.22s-.13.08-.22.08h-1.13Z"/>
      <path class="st0" d="M149.38,461.05c.08,0,.15.03.2.09s.08.13.08.21v8.74c0,2.24-1.05,3.36-3.15,3.36-.52,0-1.16-.08-1.92-.24-.86-.17-1.28-.37-1.28-.59v-.05l.12-.71c.04-.17.12-.25.27-.25.04,0,.07,0,.1.02.82.27,1.52.4,2.11.4.71,0,1.25-.2,1.6-.61.29-.34.44-.79.44-1.36v-.66h-1.49c-1.44,0-2.52-.48-3.23-1.45-.55-.71-.83-1.61-.83-2.66,0-1.33.36-2.37,1.06-3.13.68-.74,1.61-1.11,2.8-1.11h3.12-.02ZM147.95,467.81v-5.16h-1.62c-.74,0-1.31.3-1.7.89-.33.48-.49,1.08-.49,1.79s.21,1.33.62,1.8c.4.45.93.68,1.59.68h1.6,0Z"/>
      <path class="st0" d="M159.9,469.41c-1.54,0-2.71-.46-3.51-1.38-.67-.75-1-1.73-1-2.93,0-.45.07-1.01.2-1.66.15-.74.32-1.11.53-1.11.02,0,.05,0,.07.02l.68.12c.17.04.25.13.25.28,0,.02,0,.05-.02.08-.17.64-.25,1.26-.25,1.85,0,.99.28,1.75.85,2.28.53.48,1.26.72,2.21.72h5.08c.78,0,1.26-.11,1.47-.3.21-.21.3-.62.3-1.25v-4.74c0-.08.03-.15.09-.2.07-.06.13-.08.21-.08h1.13c.08,0,.15.03.21.08.07.06.09.12.09.2v4.8c0,1.26-.33,2.13-1,2.63-.54.39-1.36.59-2.48.59h-5.1,0ZM160.39,460.63c-.08,0-.15-.03-.21-.08s-.08-.11-.08-.2v-1.08c0-.08.03-.14.08-.2s.12-.08.21-.08h1.08c.18,0,.27.09.27.27v1.08c0,.18-.09.27-.27.27h-1.08ZM162.63,460.63c-.18,0-.27-.09-.27-.27v-1.08c0-.18.08-.27.27-.27h1.08c.08,0,.15.03.21.08s.08.11.08.2v1.08c0,.08-.03.14-.08.2-.06.05-.12.08-.21.08h-1.08Z"/>
      <path class="st0" d="M174.63,469.41c-1.28,0-2.18-.25-2.7-.76-.51-.5-.76-1.32-.76-2.48v-9.05c0-.08.03-.15.09-.21s.13-.08.21-.08h1.13c.08,0,.15.03.21.08.07.06.09.12.09.21v9c0,.68.09,1.09.28,1.26.19.16.68.26,1.48.29h.54v1.74h-.57,0Z"/>
      <path class="st0" d="M177.38,467.68c-.2-.54-.3-1.1-.3-1.68,0-1.26.39-2.29,1.18-3.12.71-.76,1.63-1.15,2.72-1.15,1.31,0,2.31.5,3.04,1.5.56.79.85,1.72.85,2.8,0,1.26-.37,2.3-1.11,3.13-.7.8-1.61,1.19-2.73,1.19-.96,0-1.83-.31-2.63-.94h-3.51v-1.74h2.51-.02ZM180.97,468.82c.68,0,1.2-.32,1.59-.96.29-.51.44-1.1.44-1.79,0-.83-.21-1.51-.62-2.06-.37-.47-.84-.71-1.4-.71-.65,0-1.18.31-1.57.94-.31.52-.47,1.14-.47,1.87,0,.8.19,1.45.55,1.96.37.5.86.74,1.49.74h0Z"/>
      <path class="st0" d="M190.39,470.15c0,1.2-.34,2.09-1.02,2.64-.55.44-1.29.66-2.21.66-.52,0-1-.04-1.45-.11-.63-.11-.94-.27-.94-.49v-.05l.12-.71c.04-.17.12-.25.27-.25.04,0,.07,0,.1.02.56.15,1.06.22,1.5.22.64,0,1.12-.19,1.43-.57.3-.39.45-1,.45-1.8v-8.31c0-.08.03-.15.09-.2.07-.06.13-.08.21-.08h1.13c.08,0,.15.03.21.08.07.06.09.12.09.2v8.76h0ZM189,459.07c-.08,0-.15-.03-.21-.08s-.08-.11-.08-.2v-1.08c0-.08.03-.14.08-.2.06-.05.12-.08.21-.08h1.08c.08,0,.15.03.2.08s.08.11.08.2v1.08c0,.08-.03.14-.08.2-.06.05-.12.08-.2.08h-1.08Z"/>
      <path class="st0" d="M201.52,456.84c.19,0,.28.09.28.29v9.15c0,1.26-.33,2.12-1,2.58-.53.37-1.35.55-2.48.55h-5.87c-.09,0-.16-.03-.22-.08s-.08-.13-.08-.22v-1.13c0-.09.03-.16.08-.22s.13-.08.22-.08h2.9v-7.04c0-.09.03-.16.08-.22s.13-.08.22-.08h1.13c.08,0,.16.03.22.08s.08.13.08.22v7.04h1.21c.47,0,.81-.04,1.01-.07.2-.04.35-.09.46-.19.2-.18.3-.58.3-1.21v-9.08c0-.08.03-.15.08-.21s.12-.08.21-.08h1.17ZM194.57,459.56l-.34-.32s-.04-.05-.04-.08c0-.08.08-.2.25-.36s.34-.28.53-.39c-.29-.31-.44-.72-.44-1.23,0-.54.16-.96.47-1.26.28-.27.63-.4,1.06-.4.29,0,.57.04.85.1.27.07.4.14.4.22v.04l-.08.36c0,.06-.05.08-.12.08h-.05c-.28-.06-.53-.08-.72-.08-.61,0-.91.3-.91.89,0,.28.08.51.22.68.15.17.35.25.61.25h1.13c.09,0,.13.05.13.13v.62c0,.09-.05.13-.13.13h-.85c-.44,0-.77.06-1,.13-.23.08-.49.24-.79.49-.04.04-.07.05-.1.05-.02,0-.05-.02-.08-.05h0Z"/>
      <path class="st0" d="M204.8,469.41c-.09,0-.16-.03-.22-.08s-.08-.13-.08-.22v-11.99c0-.08.03-.15.09-.21s.13-.08.21-.08h1.13c.08,0,.15.03.21.08.07.06.09.12.09.21v11.99c0,.09-.03.16-.08.22s-.13.08-.22.08h-1.13Z"/>
      <path class="st0" d="M219.31,465.66c0,2.62-1.22,3.93-3.66,3.93-1.28,0-2.24-.41-2.89-1.25-.55-.71-.83-1.69-.83-2.93,0-1.38.39-2.46,1.15-3.23.7-.71,1.64-1.06,2.83-1.06h3.08c.08,0,.15.03.21.08s.09.12.09.2v4.27h0ZM215.87,462.53c-.75,0-1.33.31-1.74.93-.34.52-.51,1.18-.51,1.97s.2,1.45.59,1.92c.35.43.83.64,1.43.64.9,0,1.48-.3,1.74-.91.15-.36.22-1,.22-1.92v-2.63h-1.74,0ZM214.53,459.07c-.08,0-.15-.03-.2-.08-.06-.05-.08-.11-.08-.2v-1.08c0-.08.03-.14.08-.2.06-.05.12-.08.2-.08h1.08c.18,0,.27.09.27.27v1.08c0,.18-.09.27-.27.27h-1.08ZM216.78,459.07c-.18,0-.27-.09-.27-.27v-1.08c0-.18.09-.27.27-.27h1.08c.18,0,.27.09.27.27v1.08c0,.18-.09.27-.27.27h-1.08Z"/>
      <path class="st0" d="M224.71,470.15c0,1.2-.34,2.09-1.02,2.64-.55.44-1.29.66-2.21.66-.52,0-1-.04-1.45-.11-.63-.11-.94-.27-.94-.49v-.05l.12-.71c.04-.17.12-.25.27-.25.04,0,.07,0,.1.02.56.15,1.06.22,1.5.22.64,0,1.12-.19,1.43-.57.3-.39.45-1,.45-1.8v-8.31c0-.08.03-.15.09-.2.07-.06.13-.08.21-.08h1.13c.08,0,.15.03.21.08.07.06.09.12.09.2v8.76h0Z"/>
      <path class="st0" d="M227.71,469.41c-.09,0-.16-.03-.22-.08s-.08-.13-.08-.22v-11.99c0-.08.03-.15.09-.21s.13-.08.21-.08h1.13c.08,0,.15.03.21.08.07.06.09.12.09.21v11.99c0,.09-.03.16-.08.22s-.13.08-.22.08h-1.13Z"/>
      <path class="st0" d="M231.47,469.41c-.09,0-.16-.03-.22-.08s-.08-.13-.08-.22v-1.13c0-.09.03-.16.08-.22s.13-.08.22-.08h4c.74,0,1.23-.16,1.49-.47.21-.25.3-.73.3-1.42v-1.11c0-.91-.13-1.56-.4-1.94-.24-.31-.59-.47-1.08-.47-.39,0-.96.11-1.68.36-.02,0-.05.02-.07.02-.11,0-.19-.07-.22-.19l-.2-.76s-.02-.05-.02-.07c0-.2.41-.39,1.25-.54.56-.11.99-.17,1.28-.17,1.91,0,2.87,1.09,2.87,3.27v1.55c0,2.45-1.11,3.68-3.34,3.68h-4.16v-.02Z"/>
      <path class="st0" d="M249.75,456.84c.19,0,.28.09.28.29v9.15c0,1.26-.33,2.12-1,2.58-.53.37-1.35.55-2.48.55h-5.87c-.09,0-.16-.03-.22-.08s-.08-.13-.08-.22v-1.13c0-.09.03-.16.08-.22s.13-.08.22-.08h2.9v-7.04c0-.09.03-.16.08-.22s.13-.08.22-.08h1.13c.08,0,.16.03.22.08s.08.13.08.22v7.04h1.21c.47,0,.81-.04,1.01-.07.2-.04.35-.09.46-.19.2-.18.3-.58.3-1.21v-9.08c0-.08.03-.15.08-.21s.12-.08.21-.08h1.17ZM245.74,474.06c.08,0,.13.05.13.13v.62c0,.09-.05.13-.13.13h-.85c-.43,0-.75.06-.97.12-.22.08-.48.23-.78.44,0,0,0,.02-.02.02l-.02.02s-.07.05-.1.05c-.02,0-.05-.02-.08-.05l-.34-.3s-.04-.05-.04-.08c0-.08.08-.2.25-.36s.34-.28.53-.39c-.29-.33-.44-.73-.44-1.23,0-.54.16-.96.47-1.26.28-.27.63-.4,1.06-.4.29,0,.57.04.85.1.27.07.4.14.4.22v.04l-.08.34c0,.07-.06.1-.13.1h-.04c-.34-.07-.58-.1-.72-.1-.6,0-.91.3-.91.91,0,.28.08.51.22.68.15.17.35.25.61.25h1.14Z"/>
      <path class="st0" d="M268.36,467.68v1.74h-1.4c-.07,1.69-.67,2.97-1.79,3.81-.98.71-2.3,1.08-3.98,1.08-1.84,0-3.25-.44-4.23-1.33-.86-.8-1.3-1.87-1.3-3.22,0-1.14.15-1.7.45-1.7h.07l.93.17c.15,0,.22.1.22.27v.07c-.05.23-.07.51-.07.85,0,2.12,1.32,3.19,3.95,3.19,1.38,0,2.4-.28,3.04-.85.59-.51.92-1.28.98-2.32h-1.4c-.08,0-.15-.03-.21-.08-.07-.06-.09-.13-.09-.22l-.02-1.11c0-.22.1-.32.32-.32h4.53v-.02ZM260.77,475.75c.18,0,.27.09.27.27v1.08c0,.18-.09.27-.27.27h-1.08c-.08,0-.15-.03-.2-.08-.06-.05-.08-.11-.08-.2v-1.08c0-.08.03-.14.08-.2.06-.05.12-.08.2-.08h1.08ZM263.04,475.75c.18,0,.27.09.27.27v1.08c0,.18-.09.27-.27.27h-1.08c-.18,0-.27-.09-.27-.27v-1.08c0-.18.09-.27.27-.27h1.08Z"/>
      <path class="st0" d="M273.84,467.68h.53v1.74h-.55c-1.25,0-2.12-.24-2.63-.7-.54.46-1.4.7-2.59.7h-.55v-1.74h.54c.77,0,1.26-.11,1.47-.3.2-.21.3-.62.3-1.25v-4.74c0-.08.03-.15.08-.2s.12-.08.21-.08h1.15c.19,0,.28.09.28.28v4.74c0,.68.1,1.1.3,1.27.2.18.7.26,1.49.28ZM270.61,459.07c-.08,0-.15-.03-.21-.08s-.08-.11-.08-.2v-1.08c0-.08.03-.14.08-.2s.12-.08.21-.08h1.08c.08,0,.15.03.2.08s.08.11.08.2v1.08c0,.08-.03.14-.08.2-.06.05-.12.08-.2.08h-1.08Z"/>
      <path class="st0" d="M277.5,464.69c.91-1.28,1.92-2.24,3.04-2.89.99-.58,2-.87,3.06-.87,1.11,0,2.04.39,2.78,1.15.7.73,1.04,1.66,1.04,2.8v.86c0,1.25-.34,2.19-1.02,2.83-.61.56-1.46.85-2.55.85h-9.82v-1.74h1.76v-10.55c0-.08.03-.15.08-.21s.12-.08.2-.08h1.15c.19,0,.28.09.28.29v7.57h0ZM285.68,465.72v-.74c0-.85-.24-1.48-.7-1.89-.39-.36-.93-.54-1.62-.54-1.16,0-2.32.53-3.49,1.57-1.05.94-1.89,2.13-2.51,3.55h6.44c.77,0,1.29-.16,1.53-.47.23-.27.34-.76.34-1.49Z"/>
      <path class="st0" d="M297.03,467.68h2.21v1.74h-2.21v.7c0,2.24-1.05,3.36-3.15,3.36-.52,0-1.16-.08-1.92-.24-.86-.17-1.28-.37-1.28-.59v-.05l.12-.71c.04-.17.12-.25.27-.25.04,0,.07,0,.1.02.82.27,1.52.4,2.11.4.71,0,1.25-.2,1.6-.61.29-.34.44-.79.44-1.36v-.66h-1.49c-1.44,0-2.52-.48-3.23-1.45-.55-.71-.83-1.61-.83-2.66,0-1.32.36-2.35,1.06-3.1.68-.73,1.61-1.1,2.8-1.1h3.12c.19,0,.28.09.28.28v6.29h-.02ZM293.71,467.81h1.6v-5.1h-1.62c-.74,0-1.31.29-1.7.87-.33.46-.49,1.04-.49,1.75s.21,1.33.62,1.8c.4.45.93.68,1.59.68h0Z"/>
      <path class="st0" d="M298.9,469.41v-1.74h.54c.47,0,.81-.04,1.01-.07.2-.04.35-.1.46-.21.2-.19.3-.62.3-1.28v-9c0-.08.03-.15.08-.21s.12-.08.21-.08h1.15c.19,0,.28.09.28.29v9.06c0,1.3-.33,2.18-1,2.66-.53.37-1.35.55-2.48.55h-.55,0Z"/>
      <path class="st0" d="M305.92,469.41c-.09,0-.16-.03-.22-.08s-.08-.13-.08-.22v-11.99c0-.08.03-.15.09-.21s.13-.08.21-.08h1.13c.08,0,.15.03.21.08.07.06.09.12.09.21v11.99c0,.09-.03.16-.08.22s-.13.08-.22.08h-1.13Z"/>
      <path class="st0" d="M318.38,467.68h.54v1.74h-.57c-.71,0-1.3-.07-1.74-.2v.94c0,1.2-.34,2.09-1.02,2.64-.55.44-1.29.66-2.21.66-.52,0-1-.04-1.45-.11-.63-.11-.94-.27-.94-.49v-.05l.12-.71c.04-.17.12-.25.27-.25.04,0,.07,0,.1.02.56.15,1.06.22,1.5.22.64,0,1.12-.19,1.43-.57.3-.39.45-1,.45-1.8v-8.31c0-.08.03-.15.09-.2.07-.06.13-.08.21-.08h1.13c.08,0,.15.03.21.08.07.06.09.12.09.2v4.74c0,.74.13,1.19.4,1.36.2.11.66.18,1.36.19h0ZM315.21,459.07c-.08,0-.15-.03-.21-.08s-.08-.11-.08-.2v-1.08c0-.08.03-.14.08-.2.06-.05.12-.08.21-.08h1.08c.18,0,.27.09.27.27v1.08c0,.18-.09.27-.27.27h-1.08Z"/>
      <path class="st0" d="M318.59,469.41v-1.74h7.33c.8,0,1.36-.16,1.7-.47.33-.3.49-.8.49-1.49,0-.8-.22-1.34-.64-1.64-.33-.23-.85-.34-1.55-.34h-4.79c-.31,0-.56-.09-.76-.29s-.28-.46-.28-.78c0-.45.21-.86.62-1.23l4.18-3.66s.08-.07.13-.07c.06,0,.1.03.15.08l.64.68s.07.09.07.15c0,.07-.03.12-.08.17l-3.69,3.22h4.1c1.21,0,2.13.34,2.76,1.02.58.63.87,1.51.87,2.65,0,1.39-.39,2.39-1.19,2.98-.65.5-1.62.74-2.89.74h-7.18,0Z"/>
      <path class="st0" d="M336.68,467.68h.54v1.74h-.57c-.71,0-1.3-.07-1.74-.2v.94c0,1.2-.34,2.09-1.02,2.64-.55.44-1.29.66-2.21.66-.52,0-1-.04-1.45-.11-.63-.11-.94-.27-.94-.49v-.05l.12-.71c.04-.17.12-.25.27-.25.04,0,.07,0,.1.02.56.15,1.06.22,1.5.22.64,0,1.12-.19,1.43-.57.3-.39.45-1,.45-1.8v-8.31c0-.08.03-.15.09-.2.07-.06.13-.08.21-.08h1.13c.08,0,.15.03.21.08.07.06.09.12.09.2v4.74c0,.74.13,1.19.4,1.36.2.11.66.18,1.36.19h0Z"/>
      <path class="st0" d="M345.52,469.41c-.69.63-1.51.94-2.49.94s-1.83-.31-2.63-.94h-3.51v-1.74h2.51c-.2-.54-.3-1.1-.3-1.68,0-1.26.39-2.29,1.18-3.12.71-.76,1.63-1.15,2.72-1.15,1.31,0,2.31.5,3.04,1.5.56.79.85,1.72.85,2.8,0,.58-.09,1.14-.28,1.65h2.49v1.74h-3.57ZM342.99,468.82c.68,0,1.2-.32,1.59-.96.29-.51.44-1.1.44-1.79,0-.83-.21-1.51-.62-2.06-.37-.47-.84-.71-1.4-.71-.65,0-1.18.31-1.57.94-.31.52-.47,1.14-.47,1.87,0,.8.19,1.45.55,1.96.37.5.86.74,1.49.74h0Z"/>
      <path class="st0" d="M348.74,469.41v-1.74h.54c.47,0,.81-.04,1.01-.07.2-.04.35-.1.46-.21.2-.19.3-.62.3-1.28v-9c0-.08.03-.15.08-.21s.12-.08.21-.08h1.15c.19,0,.28.09.28.29v9.06c0,1.3-.33,2.18-1,2.66-.53.37-1.35.55-2.48.55h-.55,0Z"/>
      <path class="st0" d="M355.77,469.41c-.09,0-.16-.03-.22-.08s-.08-.13-.08-.22v-11.99c0-.08.03-.15.09-.21s.13-.08.21-.08h1.13c.08,0,.15.03.21.08.07.06.09.12.09.21v11.99c0,.09-.03.16-.08.22s-.13.08-.22.08h-1.13Z"/>
    </g>
  </g>
  <g>
    <g>
      <path class="st0" d="M33.49,498.8c0,.21-.08.39-.23.55s-.33.23-.55.23c-.31,0-.58-.18-.82-.55l-4.49-7.26v7.38c0,.08-.03.15-.08.2s-.11.08-.2.08h-1.02c-.08,0-.15-.03-.2-.08s-.08-.11-.08-.2v-9.84c0-.23.07-.4.19-.55s.29-.22.49-.22c.39,0,.69.18.9.55l4.5,7.24v-7.45c0-.17.08-.25.25-.25h1.02c.08,0,.13.03.18.08s.08.11.08.18v9.93h.03Z"/>
      <path class="st0" d="M43.04,490.7c.08,0,.13.03.18.08s.08.11.08.18v8.21c0,.08-.03.13-.08.18s-.11.08-.18.08h-1.02c-.17,0-.25-.08-.25-.25v-.71c-.61.77-1.42,1.15-2.42,1.15-1.21,0-2.18-.46-2.91-1.39-.65-.81-.97-1.8-.97-2.98,0-1.46.4-2.61,1.22-3.46.69-.71,1.53-1.05,2.54-1.05s1.9.39,2.54,1.15v-.9c0-.17.08-.25.25-.25h1.02ZM39.4,498.38c.74,0,1.33-.29,1.76-.87.4-.55.6-1.32.6-2.29,0-1.12-.25-1.97-.77-2.56-.41-.47-.93-.71-1.56-.71-.73,0-1.33.32-1.8.95-.43.59-.65,1.36-.65,2.31,0,1.07.27,1.9.82,2.48.43.46.97.7,1.61.7h0Z"/>
      <path class="st0" d="M50.22,498.82s.02.07.02.1c0,.19-.29.37-.87.52-.4.1-.72.15-.95.15-.63,0-1.13-.21-1.47-.62-.29-.37-.44-.86-.44-1.49v-5.23h-.95c-.08,0-.15-.03-.2-.08s-.08-.11-.08-.2v-.89c0-.08.03-.13.08-.18s.12-.08.19-.08h.95v-2.45c0-.07.03-.13.08-.18s.12-.08.19-.08h1.02c.08,0,.13.03.19.08s.08.11.08.18v2.45h1.56c.08,0,.13.03.19.08s.08.11.08.18v.89c0,.08-.03.15-.08.2s-.11.08-.2.08h-1.56v4.92c0,.38.06.64.18.81.11.17.3.24.55.24.24,0,.54-.07.9-.21.04-.02.08-.03.12-.03.08,0,.12.05.15.15l.25.68h0Z"/>
      <path class="st0" d="M52.18,499.42c-.08,0-.15-.03-.2-.08s-.08-.11-.08-.2v-8.2c0-.17.09-.25.27-.25h1.02c.18,0,.27.08.27.25v8.2c0,.08-.03.15-.08.2s-.11.08-.2.08h-1.02,0ZM52.21,489.84c-.08,0-.13-.02-.18-.07-.05-.05-.08-.1-.08-.18v-.98c0-.07.03-.13.08-.17.05-.05.11-.07.18-.07h.97c.16,0,.24.08.24.24v.98c0,.16-.08.24-.24.24h-.97Z"/>
      <path class="st0" d="M59.5,499.6c-1.28,0-2.3-.47-3.06-1.41-.66-.81-.99-1.8-.99-2.99,0-1.4.42-2.53,1.27-3.38.74-.74,1.68-1.12,2.79-1.12,1.29,0,2.32.48,3.08,1.45.66.83.99,1.84.99,3.06,0,1.37-.42,2.47-1.27,3.31-.74.72-1.68,1.09-2.81,1.09ZM59.52,498.23c.79,0,1.39-.34,1.81-1.02.34-.55.52-1.23.52-2.04,0-.94-.23-1.7-.68-2.28-.42-.54-.97-.8-1.65-.8-.79,0-1.39.35-1.81,1.04-.36.55-.53,1.24-.53,2.06,0,.94.23,1.69.68,2.26.41.54.97.8,1.66.8h0Z"/>
      <path class="st0" d="M67.1,491.67c.52-.65,1.23-.97,2.14-.97.86,0,1.57.31,2.11.94.52.6.77,1.41.77,2.42v5.1c0,.08-.03.13-.08.19s-.11.08-.18.08h-1.02c-.17,0-.25-.09-.25-.27v-5.19c0-.67-.2-1.17-.59-1.49-.3-.26-.67-.39-1.09-.39-.53,0-.96.18-1.3.55-.33.34-.5.78-.5,1.3v5.23c0,.08-.03.15-.08.2s-.11.08-.2.08h-1.02c-.08,0-.15-.03-.2-.08s-.08-.11-.08-.2v-8.2c0-.17.09-.25.27-.25h1.02c.18,0,.27.08.27.25v.71h0Z"/>
      <path class="st0" d="M81.52,490.7c.08,0,.13.03.18.08s.08.11.08.18v8.21c0,.08-.03.13-.08.18s-.11.08-.18.08h-1.02c-.17,0-.25-.08-.25-.25v-.71c-.61.77-1.42,1.15-2.42,1.15-1.21,0-2.18-.46-2.91-1.39-.65-.81-.97-1.8-.97-2.98,0-1.46.4-2.61,1.22-3.46.69-.71,1.53-1.05,2.54-1.05s1.9.39,2.54,1.15v-.9c0-.17.08-.25.25-.25h1.02ZM77.89,498.38c.74,0,1.33-.29,1.76-.87.4-.55.6-1.32.6-2.29,0-1.12-.25-1.97-.77-2.56-.41-.47-.93-.71-1.56-.71-.73,0-1.33.32-1.8.95-.43.59-.65,1.36-.65,2.31,0,1.07.27,1.9.82,2.48.43.46.97.7,1.61.7h0Z"/>
      <path class="st0" d="M84.48,499.42c-.08,0-.15-.03-.2-.08s-.08-.11-.08-.2v-10.64c0-.08.03-.13.08-.18s.12-.08.19-.08h1.02c.07,0,.13.03.19.08s.08.11.08.18v10.64c0,.08-.03.15-.08.2s-.11.08-.2.08h-1.02,0Z"/>
      <path class="st0" d="M98.88,488.61c.17,0,.25.08.25.25v10.28c0,.18-.08.27-.25.27h-1.02c-.08,0-.13-.03-.18-.08s-.08-.11-.08-.19v-4.61h-4.84v4.61c0,.08-.03.15-.08.2s-.11.08-.2.08h-1.02c-.08,0-.15-.03-.2-.08s-.08-.11-.08-.2v-10.28c0-.08.03-.13.08-.18s.12-.08.19-.08h1.02c.07,0,.13.03.19.08s.08.11.08.18v4.25h4.84v-4.25c0-.08.03-.13.08-.18s.11-.08.18-.08h1.02Z"/>
      <path class="st0" d="M107.55,498.41s.05.09.05.15c0,.09-.04.17-.12.24-.67.55-1.51.83-2.54.83-1.27,0-2.27-.51-2.98-1.51-.57-.82-.86-1.8-.86-2.98,0-1.36.37-2.46,1.09-3.31.69-.79,1.58-1.18,2.68-1.18,1.18,0,2.09.41,2.72,1.24.59.77.89,1.82.89,3.16,0,.43-.15.65-.45.65h-5.37c.11.86.42,1.51.94,1.96.42.39.94.57,1.54.57s1.2-.17,1.72-.5c.05-.03.1-.05.15-.05.09,0,.16.05.21.13l.33.57h0ZM102.65,494.47h4.37c-.09-.89-.36-1.57-.8-2.02-.37-.38-.82-.55-1.36-.55-.6,0-1.11.25-1.51.77-.37.45-.59,1.06-.7,1.81h0Z"/>
      <path class="st0" d="M117.41,490.7c.08,0,.13.03.18.08s.08.11.08.18v8.21c0,.08-.03.13-.08.18s-.11.08-.18.08h-1.02c-.17,0-.25-.08-.25-.25v-.71c-.61.77-1.42,1.15-2.42,1.15-1.21,0-2.18-.46-2.91-1.39-.65-.81-.97-1.8-.97-2.98,0-1.46.4-2.61,1.22-3.46.69-.71,1.53-1.05,2.54-1.05s1.9.39,2.54,1.15v-.9c0-.17.08-.25.25-.25h1.02ZM113.77,498.38c.74,0,1.33-.29,1.76-.87.4-.55.6-1.32.6-2.29,0-1.12-.25-1.97-.77-2.56-.41-.47-.93-.71-1.56-.71-.73,0-1.33.32-1.8.95-.43.59-.65,1.36-.65,2.31,0,1.07.27,1.9.82,2.48.43.46.97.7,1.61.7h0Z"/>
      <path class="st0" d="M120.36,499.42c-.08,0-.15-.03-.2-.08s-.08-.11-.08-.2v-10.64c0-.08.03-.13.08-.18s.12-.08.19-.08h1.02c.07,0,.13.03.19.08s.08.11.08.18v10.64c0,.08-.03.15-.08.2s-.11.08-.2.08h-1.02,0Z"/>
      <path class="st0" d="M128.57,498.82s.02.07.02.1c0,.19-.29.37-.87.52-.4.1-.72.15-.95.15-.63,0-1.13-.21-1.47-.62-.29-.37-.44-.86-.44-1.49v-5.23h-.95c-.08,0-.15-.03-.2-.08s-.08-.11-.08-.2v-.89c0-.08.03-.13.08-.18s.12-.08.19-.08h.95v-2.45c0-.07.03-.13.08-.18s.12-.08.19-.08h1.02c.08,0,.13.03.19.08s.08.11.08.18v2.45h1.56c.08,0,.13.03.19.08s.08.11.08.18v.89c0,.08-.03.15-.08.2s-.11.08-.2.08h-1.56v4.92c0,.38.06.64.18.81.11.17.3.24.55.24.24,0,.54-.07.9-.21.04-.02.08-.03.12-.03.08,0,.12.05.15.15l.25.68h0Z"/>
      <path class="st0" d="M131.8,491.67c.52-.65,1.23-.97,2.14-.97.86,0,1.57.31,2.11.94.52.6.77,1.41.77,2.42v5.1c0,.18-.08.27-.25.27h-1.02c-.08,0-.13-.03-.18-.08s-.08-.11-.08-.19v-5.19c0-.67-.2-1.17-.59-1.49-.3-.26-.67-.39-1.09-.39-.52,0-.95.18-1.3.55-.33.34-.5.78-.5,1.3v5.23c0,.08-.03.15-.08.2s-.11.08-.2.08h-1.02c-.08,0-.15-.03-.2-.08s-.08-.11-.08-.2v-10.64c0-.08.03-.13.08-.18s.12-.08.19-.08h1.02c.07,0,.13.03.19.08s.08.11.08.18v3.16h0Z"/>
      <path class="st0" d="M148.25,490.04h-4.7v3.1h3.96c.08,0,.15.03.2.08s.08.11.08.2v.85c0,.08-.03.13-.08.18s-.12.08-.19.08h-3.96v3.49h4.7c.17,0,.25.09.25.27v.87c0,.18-.08.27-.25.27h-5.37c-.22,0-.39-.08-.55-.23-.15-.15-.23-.33-.23-.55v-9.27c0-.22.08-.39.23-.55.15-.15.33-.23.55-.23h5.37c.17,0,.25.08.25.25v.89c0,.18-.08.27-.25.27h0Z"/>
      <path class="st0" d="M156.83,492.28c.25-.55.62-.97,1.12-1.24.41-.23.87-.33,1.39-.33.86,0,1.57.31,2.12.94.52.6.77,1.41.77,2.42v5.1c0,.08-.03.15-.08.2s-.11.08-.2.08h-1.02c-.08,0-.15-.03-.2-.08s-.08-.11-.08-.2v-5.19c0-.67-.2-1.17-.59-1.49-.29-.26-.66-.39-1.09-.39-.53,0-.96.19-1.3.55-.33.37-.5.84-.5,1.42v5.1c0,.08-.03.13-.08.19s-.11.08-.18.08h-1.02c-.17,0-.25-.09-.25-.27v-5.19c0-.67-.2-1.17-.59-1.49-.3-.26-.67-.39-1.09-.39-.53,0-.96.18-1.3.55-.33.34-.5.78-.5,1.3v5.23c0,.08-.03.15-.08.2s-.11.08-.2.08h-1.02c-.08,0-.15-.03-.2-.08s-.08-.11-.08-.2v-8.2c0-.17.09-.25.27-.25h1.02c.18,0,.27.08.27.25v.71c.52-.65,1.23-.97,2.14-.97.57,0,1.09.15,1.54.44.42.28.74.66.97,1.14h0Z"/>
      <path class="st0" d="M170.49,498.41s.05.09.05.15c0,.09-.04.17-.12.24-.67.55-1.51.83-2.54.83-1.27,0-2.27-.51-2.98-1.51-.57-.82-.86-1.8-.86-2.98,0-1.36.37-2.46,1.09-3.31.69-.79,1.58-1.18,2.68-1.18,1.18,0,2.09.41,2.72,1.24.59.77.89,1.82.89,3.16,0,.43-.15.65-.45.65h-5.37c.11.86.42,1.51.94,1.96.42.39.94.57,1.54.57s1.2-.17,1.72-.5c.05-.03.1-.05.15-.05.09,0,.16.05.21.13l.33.57h0ZM165.59,494.47h4.37c-.09-.89-.36-1.57-.8-2.02-.37-.38-.82-.55-1.36-.55-.6,0-1.11.25-1.51.77-.37.45-.59,1.06-.7,1.81h0Z"/>
      <path class="st0" d="M174.78,491.55c.45-.58,1.08-.87,1.87-.87.32,0,.63.08.93.24.3.16.44.31.44.48,0,.08-.03.14-.09.22l-.52.62c-.08.08-.16.12-.25.12-.04,0-.08,0-.13-.03,0,0-.03-.02-.05-.03-.26-.14-.51-.22-.74-.22-.42,0-.78.17-1.05.5-.27.31-.4.71-.4,1.19v5.4c0,.08-.03.15-.08.2s-.11.08-.2.08h-1.02c-.08,0-.15-.03-.2-.08s-.08-.11-.08-.2v-8.13c0-.08.03-.15.08-.2s.11-.08.2-.08h1.02c.08,0,.15.03.2.08s.08.11.08.2v.53h0Z"/>
      <path class="st0" d="M186.63,490.7c.08,0,.13.03.19.08s.08.11.08.18v8.7c0,1.02-.39,1.8-1.17,2.31-.59.39-1.36.59-2.29.59-.42,0-.99-.09-1.69-.29-.72-.19-1.09-.4-1.09-.63,0-.03,0-.06.02-.09l.18-.48c.03-.09.08-.13.17-.13.05,0,.1,0,.17.03.71.31,1.4.47,2.09.47s1.17-.15,1.52-.45c.37-.31.55-.75.55-1.32v-1.18c-.61.73-1.41,1.1-2.39,1.1-1.21,0-2.18-.46-2.91-1.39-.65-.81-.97-1.8-.97-2.98,0-1.45.4-2.59,1.22-3.43.69-.71,1.53-1.05,2.54-1.05s1.88.38,2.51,1.12v-.87c0-.07.03-.13.08-.18s.12-.08.19-.08h1.02v-.02ZM185.35,494.55c-.09-.89-.38-1.58-.86-2.04-.39-.39-.87-.57-1.44-.57-.72,0-1.33.32-1.8.95-.43.58-.65,1.34-.65,2.28,0,1.06.27,1.88.82,2.46.43.46.97.7,1.61.7s1.2-.24,1.62-.7c.39-.44.63-1.05.71-1.84v-1.24h0Z"/>
      <path class="st0" d="M195.3,498.41s.05.09.05.15c0,.09-.04.17-.12.24-.67.55-1.51.83-2.54.83-1.27,0-2.27-.51-2.98-1.51-.57-.82-.86-1.8-.86-2.98,0-1.36.37-2.46,1.09-3.31.69-.79,1.58-1.18,2.68-1.18,1.18,0,2.09.41,2.72,1.24.59.77.89,1.82.89,3.16,0,.43-.15.65-.45.65h-5.37c.11.86.42,1.51.94,1.96.42.39.94.57,1.54.57s1.2-.17,1.72-.5c.05-.03.1-.05.15-.05.09,0,.16.05.21.13l.33.57h0ZM190.41,494.47h4.37c-.09-.89-.36-1.57-.8-2.02-.37-.38-.82-.55-1.36-.55-.6,0-1.11.25-1.51.77-.37.45-.59,1.06-.7,1.81h0Z"/>
      <path class="st0" d="M199.6,491.67c.52-.65,1.23-.97,2.14-.97.86,0,1.57.31,2.11.94.52.6.77,1.41.77,2.42v5.1c0,.08-.03.13-.08.19s-.11.08-.18.08h-1.02c-.17,0-.25-.09-.25-.27v-5.19c0-.67-.2-1.17-.59-1.49-.3-.26-.67-.39-1.09-.39-.53,0-.96.18-1.3.55-.33.34-.5.78-.5,1.3v5.23c0,.08-.03.15-.08.2s-.11.08-.2.08h-1.02c-.08,0-.15-.03-.2-.08s-.08-.11-.08-.2v-8.2c0-.17.09-.25.27-.25h1.02c.18,0,.27.08.27.25v.71h0Z"/>
      <path class="st0" d="M213.48,498.17s.05.1.05.17c0,.09-.05.17-.14.24-.84.69-1.8,1.02-2.89,1.02-1.25,0-2.26-.43-3.01-1.3-.71-.8-1.06-1.83-1.06-3.11,0-1.44.45-2.59,1.34-3.43.72-.69,1.59-1.02,2.59-1.02.72,0,1.4.19,2.03.56.55.33.99.78,1.3,1.34.05.06.08.12.08.18,0,.09-.04.17-.12.23l-.62.48s-.08.03-.12.03c-.11,0-.21-.05-.3-.15-.74-.86-1.49-1.3-2.26-1.3s-1.32.3-1.77.9c-.4.55-.6,1.25-.6,2.09,0,1.05.28,1.87.85,2.43.46.46,1.04.7,1.76.7s1.39-.23,2.09-.67c.11-.08.21-.12.29-.12.06,0,.1.03.13.08l.39.65h0Z"/>
      <path class="st0" d="M218.8,499.92c-.36.99-.71,1.66-1.09,2.04-.39.39-.87.59-1.47.59-.3,0-.67-.06-1.1-.18-.46-.14-.7-.3-.7-.48,0-.03,0-.06.02-.09l.22-.53c.04-.12.12-.18.24-.18.03,0,.06,0,.09.02.39.16.71.24,1,.24.66,0,1.13-.45,1.41-1.34l.22-.65-2.96-8.01s-.02-.06-.02-.09c0-.16.08-.24.24-.24h1.15c.11,0,.19.06.24.17l2.03,5.89,1.74-5.88c.04-.12.12-.18.25-.18h1.1c.16,0,.24.08.24.24,0,.03,0,.06-.02.08l-2.83,8.6-.02-.03Z"/>
      <path class="st0" d="M230.8,499.57c-.93,0-1.78-.24-2.54-.72-.73-.47-1.32-1.12-1.74-1.94-.43-.85-.65-1.78-.65-2.78,0-1.07.22-2.04.65-2.91.42-.85,1.01-1.51,1.76-2.01.75-.49,1.61-.74,2.56-.74s1.8.25,2.59.75c.73.48,1.32,1.16,1.74,2.01.43.87.65,1.84.65,2.9s-.22,1.95-.65,2.78c-.42.82-1.01,1.46-1.76,1.94-.78.48-1.65.72-2.6.72h0ZM230.81,498c.55,0,1.08-.16,1.57-.47.53-.32.94-.76,1.25-1.33.33-.63.5-1.33.5-2.13,0-1.32-.39-2.36-1.18-3.13-.61-.6-1.33-.9-2.12-.9-.55,0-1.06.16-1.56.47-.53.33-.94.79-1.25,1.37-.33.65-.5,1.38-.5,2.21,0,1.27.39,2.28,1.18,3.04.6.58,1.31.87,2.1.87h0Z"/>
      <path class="st0" d="M239.33,491.85c.66-.75,1.49-1.14,2.53-1.14,1.17,0,2.11.45,2.81,1.36.64.83.95,1.87.95,3.13,0,1.35-.41,2.44-1.24,3.28-.71.72-1.6,1.09-2.64,1.09-.99,0-1.79-.38-2.41-1.14v3.8c0,.08-.03.15-.08.2s-.11.08-.2.08h-1.02c-.08,0-.15-.03-.2-.08s-.08-.11-.08-.2v-11.26c0-.08.03-.15.08-.2s.11-.08.2-.08h1.02c.08,0,.15.03.2.08s.08.11.08.2v.87ZM239.33,495.62c.08.96.36,1.67.86,2.16.39.38.88.55,1.49.55.73,0,1.33-.3,1.79-.9.42-.57.64-1.33.64-2.26,0-1.07-.27-1.91-.83-2.51-.45-.48-1-.72-1.62-.72-.68,0-1.22.26-1.64.79-.39.5-.62,1.17-.68,2.01v.87h-.02Z"/>
      <path class="st0" d="M253.56,498.41s.05.09.05.15c0,.09-.04.17-.12.24-.67.55-1.51.83-2.54.83-1.27,0-2.27-.51-2.98-1.51-.57-.82-.86-1.8-.86-2.98,0-1.36.37-2.46,1.09-3.31.69-.79,1.58-1.18,2.68-1.18,1.18,0,2.09.41,2.72,1.24.59.77.89,1.82.89,3.16,0,.43-.15.65-.45.65h-5.37c.11.86.42,1.51.94,1.96.42.39.94.57,1.54.57s1.2-.17,1.72-.5c.05-.03.1-.05.15-.05.09,0,.16.05.21.13l.33.57h0ZM248.66,494.47h4.37c-.09-.89-.36-1.57-.8-2.02-.37-.38-.82-.55-1.36-.55-.6,0-1.11.25-1.51.77-.37.45-.59,1.06-.7,1.81h0Z"/>
      <path class="st0" d="M257.86,491.55c.45-.58,1.08-.87,1.87-.87.32,0,.63.08.93.24.3.16.44.31.44.48,0,.08-.03.14-.09.22l-.52.62c-.08.08-.16.12-.25.12-.04,0-.08,0-.13-.03,0,0-.03-.02-.05-.03-.26-.14-.51-.22-.74-.22-.42,0-.78.17-1.05.5-.27.31-.4.71-.4,1.19v5.4c0,.08-.03.15-.08.2s-.11.08-.2.08h-1.02c-.08,0-.15-.03-.2-.08s-.08-.11-.08-.2v-8.13c0-.08.03-.15.08-.2s.11-.08.2-.08h1.02c.08,0,.15.03.2.08s.08.11.08.2v.53h0Z"/>
      <path class="st0" d="M269.74,490.7c.08,0,.13.03.18.08s.08.11.08.18v8.21c0,.08-.03.13-.08.18s-.11.08-.18.08h-1.02c-.17,0-.25-.08-.25-.25v-.71c-.61.77-1.42,1.15-2.42,1.15-1.21,0-2.18-.46-2.91-1.39-.65-.81-.97-1.8-.97-2.98,0-1.46.4-2.61,1.22-3.46.69-.71,1.53-1.05,2.54-1.05s1.9.39,2.54,1.15v-.9c0-.17.08-.25.25-.25h1.02ZM266.09,498.38c.74,0,1.33-.29,1.76-.87.4-.55.6-1.32.6-2.29,0-1.12-.25-1.97-.77-2.56-.41-.47-.93-.71-1.56-.71-.73,0-1.33.32-1.8.95-.43.59-.65,1.36-.65,2.31,0,1.07.27,1.9.82,2.48.43.46.97.7,1.61.7h0Z"/>
      <path class="st0" d="M276.92,498.82s.02.07.02.1c0,.19-.29.37-.87.52-.4.1-.72.15-.95.15-.63,0-1.13-.21-1.47-.62-.29-.37-.44-.86-.44-1.49v-5.23h-.95c-.08,0-.15-.03-.2-.08s-.08-.11-.08-.2v-.89c0-.08.03-.13.08-.18s.12-.08.19-.08h.95v-2.45c0-.07.03-.13.08-.18s.12-.08.19-.08h1.02c.08,0,.13.03.19.08s.08.11.08.18v2.45h1.56c.08,0,.13.03.19.08s.08.11.08.18v.89c0,.08-.03.15-.08.2s-.11.08-.2.08h-1.56v4.92c0,.38.06.64.18.81.11.17.3.24.55.24.24,0,.54-.07.9-.21.04-.02.08-.03.12-.03.08,0,.12.05.15.15l.25.68h0Z"/>
      <path class="st0" d="M278.89,499.42c-.08,0-.15-.03-.2-.08s-.08-.11-.08-.2v-8.2c0-.17.09-.25.27-.25h1.02c.18,0,.27.08.27.25v8.2c0,.08-.03.15-.08.2s-.11.08-.2.08h-1.02ZM278.92,489.84c-.08,0-.13-.02-.18-.07-.05-.05-.08-.1-.08-.18v-.98c0-.07.03-.13.08-.17.05-.05.11-.07.18-.07h.97c.16,0,.24.08.24.24v.98c0,.16-.08.24-.24.24h-.97Z"/>
      <path class="st0" d="M286.2,499.6c-1.28,0-2.3-.47-3.06-1.41-.66-.81-.99-1.8-.99-2.99,0-1.4.42-2.53,1.27-3.38.74-.74,1.68-1.12,2.79-1.12,1.29,0,2.32.48,3.08,1.45.66.83.99,1.84.99,3.06,0,1.37-.42,2.47-1.27,3.31-.74.72-1.68,1.09-2.81,1.09ZM286.21,498.23c.79,0,1.39-.34,1.81-1.02.34-.55.52-1.23.52-2.04,0-.94-.23-1.7-.68-2.28-.42-.54-.97-.8-1.65-.8-.79,0-1.39.35-1.81,1.04-.36.55-.53,1.24-.53,2.06,0,.94.23,1.69.68,2.26.41.54.97.8,1.66.8h0Z"/>
      <path class="st0" d="M293.81,491.67c.52-.65,1.23-.97,2.14-.97.86,0,1.57.31,2.11.94.52.6.77,1.41.77,2.42v5.1c0,.08-.03.13-.08.19s-.11.08-.18.08h-1.02c-.17,0-.25-.09-.25-.27v-5.19c0-.67-.2-1.17-.59-1.49-.3-.26-.67-.39-1.09-.39-.53,0-.96.18-1.3.55-.33.34-.5.78-.5,1.3v5.23c0,.08-.03.15-.08.2s-.11.08-.2.08h-1.02c-.08,0-.15-.03-.2-.08s-.08-.11-.08-.2v-8.2c0-.17.09-.25.27-.25h1.02c.18,0,.27.08.27.25v.71h0Z"/>
      <path class="st0" d="M305.37,492.36c-.05.08-.12.12-.22.12-.06,0-.11-.02-.17-.05-.44-.3-.94-.45-1.49-.45-.89,0-1.34.37-1.34,1.09,0,.27.11.51.33.71s.65.44,1.31.73l.03.02s.02.02.03.02c.87.39,1.49.71,1.81,1,.49.43.74.95.74,1.54,0,.87-.35,1.56-1.04,2.04-.56.39-1.25.57-2.07.57-1.15,0-2.03-.29-2.63-.87-.05-.06-.08-.13-.08-.21,0-.05,0-.09.03-.13l.27-.47c.09-.15.2-.23.32-.23.06,0,.11.02.17.05.46.28,1.02.42,1.66.42,1.1,0,1.65-.39,1.65-1.17,0-.24-.1-.42-.31-.57-.21-.15-.61-.35-1.21-.59l-.03-.02c-.86-.34-1.48-.68-1.83-1-.51-.44-.75-1.01-.75-1.69,0-.84.32-1.49.97-1.96.54-.39,1.18-.57,1.95-.57.42,0,.91.09,1.47.28.59.2.89.44.89.71,0,.06-.02.12-.06.18l-.38.52v-.02Z"/>
      <path class="st0" d="M318.95,497.7s.06.1.06.17c0,.08-.04.15-.1.2-1.05,1.01-2.23,1.51-3.53,1.51-.84,0-1.61-.24-2.31-.7-.71-.46-1.25-1.1-1.65-1.91-.42-.85-.64-1.8-.64-2.84,0-1.79.55-3.21,1.64-4.28.88-.86,1.93-1.31,3.13-1.32,1.22-.02,2.27.46,3.14,1.45.04.05.06.1.06.17,0,.08-.03.15-.09.21l-.55.48c-.08.06-.14.09-.22.09-.09,0-.17-.04-.23-.1-.55-.56-1.24-.85-2.06-.85-.95,0-1.73.42-2.34,1.27-.55.75-.83,1.7-.83,2.83,0,1.34.36,2.39,1.06,3.13.57.6,1.29.9,2.13.9.93,0,1.79-.37,2.57-1.1.05-.03.1-.05.15-.05.09,0,.16.04.21.1l.4.62h0Z"/>
      <path class="st0" d="M326.97,498.41s.05.09.05.15c0,.09-.04.17-.12.24-.67.55-1.51.83-2.54.83-1.27,0-2.27-.51-2.98-1.51-.57-.82-.86-1.8-.86-2.98,0-1.36.37-2.46,1.09-3.31.69-.79,1.58-1.18,2.68-1.18,1.18,0,2.09.41,2.72,1.24.59.77.89,1.82.89,3.16,0,.43-.15.65-.45.65h-5.37c.11.86.42,1.51.94,1.96.42.39.94.57,1.54.57s1.2-.17,1.72-.5c.05-.03.1-.05.15-.05.09,0,.16.05.21.13l.33.57h0ZM322.07,494.47h4.37c-.09-.89-.36-1.57-.8-2.02-.37-.38-.82-.55-1.36-.55-.6,0-1.11.25-1.51.77-.37.45-.59,1.06-.7,1.81h0Z"/>
      <path class="st0" d="M331.26,491.67c.52-.65,1.23-.97,2.14-.97.86,0,1.57.31,2.11.94.52.6.77,1.41.77,2.42v5.1c0,.08-.03.13-.08.19s-.11.08-.18.08h-1.02c-.17,0-.25-.09-.25-.27v-5.19c0-.67-.2-1.17-.59-1.49-.3-.26-.67-.39-1.09-.39-.53,0-.96.18-1.3.55-.33.34-.5.78-.5,1.3v5.23c0,.08-.03.15-.08.2s-.11.08-.2.08h-1.02c-.08,0-.15-.03-.2-.08s-.08-.11-.08-.2v-8.2c0-.17.09-.25.27-.25h1.02c.18,0,.27.08.27.25v.71h0Z"/>
      <path class="st0" d="M343.05,498.82s.02.07.02.1c0,.19-.29.37-.87.52-.4.1-.72.15-.95.15-.63,0-1.13-.21-1.47-.62-.29-.37-.44-.86-.44-1.49v-5.23h-.95c-.08,0-.15-.03-.2-.08s-.08-.11-.08-.2v-.89c0-.08.03-.13.08-.18s.12-.08.19-.08h.95v-2.45c0-.07.03-.13.08-.18s.12-.08.19-.08h1.02c.08,0,.13.03.19.08s.08.11.08.18v2.45h1.56c.08,0,.13.03.19.08s.08.11.08.18v.89c0,.08-.03.15-.08.2s-.11.08-.2.08h-1.56v4.92c0,.38.06.64.18.81.11.17.3.24.55.24.24,0,.54-.07.9-.21.04-.02.08-.03.12-.03.08,0,.12.05.15.15l.25.68h0Z"/>
      <path class="st0" d="M350.72,498.41s.05.09.05.15c0,.09-.04.17-.12.24-.67.55-1.51.83-2.54.83-1.27,0-2.27-.51-2.98-1.51-.57-.82-.86-1.8-.86-2.98,0-1.36.37-2.46,1.09-3.31.69-.79,1.58-1.18,2.68-1.18,1.18,0,2.09.41,2.72,1.24.59.77.89,1.82.89,3.16,0,.43-.15.65-.45.65h-5.37c.11.86.42,1.51.94,1.96.42.39.94.57,1.54.57s1.2-.17,1.72-.5c.05-.03.1-.05.15-.05.09,0,.16.05.21.13l.33.57h0ZM345.82,494.47h4.37c-.09-.89-.36-1.57-.8-2.02-.37-.38-.82-.55-1.36-.55-.6,0-1.11.25-1.51.77-.37.45-.59,1.06-.7,1.81h0Z"/>
      <path class="st0" d="M355.01,491.55c.45-.58,1.08-.87,1.87-.87.32,0,.63.08.93.24.3.16.44.31.44.48,0,.08-.03.14-.09.22l-.52.62c-.08.08-.16.12-.25.12-.04,0-.08,0-.13-.03,0,0-.03-.02-.05-.03-.26-.14-.51-.22-.74-.22-.42,0-.78.17-1.05.5-.27.31-.4.71-.4,1.19v5.4c0,.08-.03.15-.08.2s-.11.08-.2.08h-1.02c-.08,0-.15-.03-.2-.08s-.08-.11-.08-.2v-8.13c0-.08.03-.15.08-.2s.11-.08.2-.08h1.02c.08,0,.15.03.2.08s.08.11.08.2v.53h0Z"/>
    </g>
    <g>
      <path class="st0" d="M33.49,498.8c0,.21-.08.39-.23.55s-.33.23-.55.23c-.31,0-.58-.18-.82-.55l-4.49-7.26v7.38c0,.08-.03.15-.08.2s-.11.08-.2.08h-1.02c-.08,0-.15-.03-.2-.08s-.08-.11-.08-.2v-9.84c0-.23.07-.4.19-.55s.29-.22.49-.22c.39,0,.69.18.9.55l4.5,7.24v-7.45c0-.17.08-.25.25-.25h1.02c.08,0,.13.03.18.08s.08.11.08.18v9.93h.03Z"/>
      <path class="st0" d="M43.04,490.7c.08,0,.13.03.18.08s.08.11.08.18v8.21c0,.08-.03.13-.08.18s-.11.08-.18.08h-1.02c-.17,0-.25-.08-.25-.25v-.71c-.61.77-1.42,1.15-2.42,1.15-1.21,0-2.18-.46-2.91-1.39-.65-.81-.97-1.8-.97-2.98,0-1.46.4-2.61,1.22-3.46.69-.71,1.53-1.05,2.54-1.05s1.9.39,2.54,1.15v-.9c0-.17.08-.25.25-.25h1.02ZM39.4,498.38c.74,0,1.33-.29,1.76-.87.4-.55.6-1.32.6-2.29,0-1.12-.25-1.97-.77-2.56-.41-.47-.93-.71-1.56-.71-.73,0-1.33.32-1.8.95-.43.59-.65,1.36-.65,2.31,0,1.07.27,1.9.82,2.48.43.46.97.7,1.61.7h0Z"/>
      <path class="st0" d="M50.22,498.82s.02.07.02.1c0,.19-.29.37-.87.52-.4.1-.72.15-.95.15-.63,0-1.13-.21-1.47-.62-.29-.37-.44-.86-.44-1.49v-5.23h-.95c-.08,0-.15-.03-.2-.08s-.08-.11-.08-.2v-.89c0-.08.03-.13.08-.18s.12-.08.19-.08h.95v-2.45c0-.07.03-.13.08-.18s.12-.08.19-.08h1.02c.08,0,.13.03.19.08s.08.11.08.18v2.45h1.56c.08,0,.13.03.19.08s.08.11.08.18v.89c0,.08-.03.15-.08.2s-.11.08-.2.08h-1.56v4.92c0,.38.06.64.18.81.11.17.3.24.55.24.24,0,.54-.07.9-.21.04-.02.08-.03.12-.03.08,0,.12.05.15.15l.25.68h0Z"/>
      <path class="st0" d="M52.18,499.42c-.08,0-.15-.03-.2-.08s-.08-.11-.08-.2v-8.2c0-.17.09-.25.27-.25h1.02c.18,0,.27.08.27.25v8.2c0,.08-.03.15-.08.2s-.11.08-.2.08h-1.02,0ZM52.21,489.84c-.08,0-.13-.02-.18-.07-.05-.05-.08-.1-.08-.18v-.98c0-.07.03-.13.08-.17.05-.05.11-.07.18-.07h.97c.16,0,.24.08.24.24v.98c0,.16-.08.24-.24.24h-.97Z"/>
      <path class="st0" d="M59.5,499.6c-1.28,0-2.3-.47-3.06-1.41-.66-.81-.99-1.8-.99-2.99,0-1.4.42-2.53,1.27-3.38.74-.74,1.68-1.12,2.79-1.12,1.29,0,2.32.48,3.08,1.45.66.83.99,1.84.99,3.06,0,1.37-.42,2.47-1.27,3.31-.74.72-1.68,1.09-2.81,1.09ZM59.52,498.23c.79,0,1.39-.34,1.81-1.02.34-.55.52-1.23.52-2.04,0-.94-.23-1.7-.68-2.28-.42-.54-.97-.8-1.65-.8-.79,0-1.39.35-1.81,1.04-.36.55-.53,1.24-.53,2.06,0,.94.23,1.69.68,2.26.41.54.97.8,1.66.8h0Z"/>
      <path class="st0" d="M67.1,491.67c.52-.65,1.23-.97,2.14-.97.86,0,1.57.31,2.11.94.52.6.77,1.41.77,2.42v5.1c0,.08-.03.13-.08.19s-.11.08-.18.08h-1.02c-.17,0-.25-.09-.25-.27v-5.19c0-.67-.2-1.17-.59-1.49-.3-.26-.67-.39-1.09-.39-.53,0-.96.18-1.3.55-.33.34-.5.78-.5,1.3v5.23c0,.08-.03.15-.08.2s-.11.08-.2.08h-1.02c-.08,0-.15-.03-.2-.08s-.08-.11-.08-.2v-8.2c0-.17.09-.25.27-.25h1.02c.18,0,.27.08.27.25v.71h0Z"/>
      <path class="st0" d="M81.52,490.7c.08,0,.13.03.18.08s.08.11.08.18v8.21c0,.08-.03.13-.08.18s-.11.08-.18.08h-1.02c-.17,0-.25-.08-.25-.25v-.71c-.61.77-1.42,1.15-2.42,1.15-1.21,0-2.18-.46-2.91-1.39-.65-.81-.97-1.8-.97-2.98,0-1.46.4-2.61,1.22-3.46.69-.71,1.53-1.05,2.54-1.05s1.9.39,2.54,1.15v-.9c0-.17.08-.25.25-.25h1.02ZM77.89,498.38c.74,0,1.33-.29,1.76-.87.4-.55.6-1.32.6-2.29,0-1.12-.25-1.97-.77-2.56-.41-.47-.93-.71-1.56-.71-.73,0-1.33.32-1.8.95-.43.59-.65,1.36-.65,2.31,0,1.07.27,1.9.82,2.48.43.46.97.7,1.61.7h0Z"/>
      <path class="st0" d="M84.48,499.42c-.08,0-.15-.03-.2-.08s-.08-.11-.08-.2v-10.64c0-.08.03-.13.08-.18s.12-.08.19-.08h1.02c.07,0,.13.03.19.08s.08.11.08.18v10.64c0,.08-.03.15-.08.2s-.11.08-.2.08h-1.02,0Z"/>
      <path class="st0" d="M98.88,488.61c.17,0,.25.08.25.25v10.28c0,.18-.08.27-.25.27h-1.02c-.08,0-.13-.03-.18-.08s-.08-.11-.08-.19v-4.61h-4.84v4.61c0,.08-.03.15-.08.2s-.11.08-.2.08h-1.02c-.08,0-.15-.03-.2-.08s-.08-.11-.08-.2v-10.28c0-.08.03-.13.08-.18s.12-.08.19-.08h1.02c.07,0,.13.03.19.08s.08.11.08.18v4.25h4.84v-4.25c0-.08.03-.13.08-.18s.11-.08.18-.08h1.02Z"/>
      <path class="st0" d="M107.55,498.41s.05.09.05.15c0,.09-.04.17-.12.24-.67.55-1.51.83-2.54.83-1.27,0-2.27-.51-2.98-1.51-.57-.82-.86-1.8-.86-2.98,0-1.36.37-2.46,1.09-3.31.69-.79,1.58-1.18,2.68-1.18,1.18,0,2.09.41,2.72,1.24.59.77.89,1.82.89,3.16,0,.43-.15.65-.45.65h-5.37c.11.86.42,1.51.94,1.96.42.39.94.57,1.54.57s1.2-.17,1.72-.5c.05-.03.1-.05.15-.05.09,0,.16.05.21.13l.33.57h0ZM102.65,494.47h4.37c-.09-.89-.36-1.57-.8-2.02-.37-.38-.82-.55-1.36-.55-.6,0-1.11.25-1.51.77-.37.45-.59,1.06-.7,1.81h0Z"/>
      <path class="st0" d="M117.41,490.7c.08,0,.13.03.18.08s.08.11.08.18v8.21c0,.08-.03.13-.08.18s-.11.08-.18.08h-1.02c-.17,0-.25-.08-.25-.25v-.71c-.61.77-1.42,1.15-2.42,1.15-1.21,0-2.18-.46-2.91-1.39-.65-.81-.97-1.8-.97-2.98,0-1.46.4-2.61,1.22-3.46.69-.71,1.53-1.05,2.54-1.05s1.9.39,2.54,1.15v-.9c0-.17.08-.25.25-.25h1.02ZM113.77,498.38c.74,0,1.33-.29,1.76-.87.4-.55.6-1.32.6-2.29,0-1.12-.25-1.97-.77-2.56-.41-.47-.93-.71-1.56-.71-.73,0-1.33.32-1.8.95-.43.59-.65,1.36-.65,2.31,0,1.07.27,1.9.82,2.48.43.46.97.7,1.61.7h0Z"/>
      <path class="st0" d="M120.36,499.42c-.08,0-.15-.03-.2-.08s-.08-.11-.08-.2v-10.64c0-.08.03-.13.08-.18s.12-.08.19-.08h1.02c.07,0,.13.03.19.08s.08.11.08.18v10.64c0,.08-.03.15-.08.2s-.11.08-.2.08h-1.02,0Z"/>
      <path class="st0" d="M128.57,498.82s.02.07.02.1c0,.19-.29.37-.87.52-.4.1-.72.15-.95.15-.63,0-1.13-.21-1.47-.62-.29-.37-.44-.86-.44-1.49v-5.23h-.95c-.08,0-.15-.03-.2-.08s-.08-.11-.08-.2v-.89c0-.08.03-.13.08-.18s.12-.08.19-.08h.95v-2.45c0-.07.03-.13.08-.18s.12-.08.19-.08h1.02c.08,0,.13.03.19.08s.08.11.08.18v2.45h1.56c.08,0,.13.03.19.08s.08.11.08.18v.89c0,.08-.03.15-.08.2s-.11.08-.2.08h-1.56v4.92c0,.38.06.64.18.81.11.17.3.24.55.24.24,0,.54-.07.9-.21.04-.02.08-.03.12-.03.08,0,.12.05.15.15l.25.68h0Z"/>
      <path class="st0" d="M131.8,491.67c.52-.65,1.23-.97,2.14-.97.86,0,1.57.31,2.11.94.52.6.77,1.41.77,2.42v5.1c0,.18-.08.27-.25.27h-1.02c-.08,0-.13-.03-.18-.08s-.08-.11-.08-.19v-5.19c0-.67-.2-1.17-.59-1.49-.3-.26-.67-.39-1.09-.39-.52,0-.95.18-1.3.55-.33.34-.5.78-.5,1.3v5.23c0,.08-.03.15-.08.2s-.11.08-.2.08h-1.02c-.08,0-.15-.03-.2-.08s-.08-.11-.08-.2v-10.64c0-.08.03-.13.08-.18s.12-.08.19-.08h1.02c.07,0,.13.03.19.08s.08.11.08.18v3.16h0Z"/>
      <path class="st0" d="M148.25,490.04h-4.7v3.1h3.96c.08,0,.15.03.2.08s.08.11.08.2v.85c0,.08-.03.13-.08.18s-.12.08-.19.08h-3.96v3.49h4.7c.17,0,.25.09.25.27v.87c0,.18-.08.27-.25.27h-5.37c-.22,0-.39-.08-.55-.23-.15-.15-.23-.33-.23-.55v-9.27c0-.22.08-.39.23-.55.15-.15.33-.23.55-.23h5.37c.17,0,.25.08.25.25v.89c0,.18-.08.27-.25.27h0Z"/>
      <path class="st0" d="M156.83,492.28c.25-.55.62-.97,1.12-1.24.41-.23.87-.33,1.39-.33.86,0,1.57.31,2.12.94.52.6.77,1.41.77,2.42v5.1c0,.08-.03.15-.08.2s-.11.08-.2.08h-1.02c-.08,0-.15-.03-.2-.08s-.08-.11-.08-.2v-5.19c0-.67-.2-1.17-.59-1.49-.29-.26-.66-.39-1.09-.39-.53,0-.96.19-1.3.55-.33.37-.5.84-.5,1.42v5.1c0,.08-.03.13-.08.19s-.11.08-.18.08h-1.02c-.17,0-.25-.09-.25-.27v-5.19c0-.67-.2-1.17-.59-1.49-.3-.26-.67-.39-1.09-.39-.53,0-.96.18-1.3.55-.33.34-.5.78-.5,1.3v5.23c0,.08-.03.15-.08.2s-.11.08-.2.08h-1.02c-.08,0-.15-.03-.2-.08s-.08-.11-.08-.2v-8.2c0-.17.09-.25.27-.25h1.02c.18,0,.27.08.27.25v.71c.52-.65,1.23-.97,2.14-.97.57,0,1.09.15,1.54.44.42.28.74.66.97,1.14h0Z"/>
      <path class="st0" d="M170.49,498.41s.05.09.05.15c0,.09-.04.17-.12.24-.67.55-1.51.83-2.54.83-1.27,0-2.27-.51-2.98-1.51-.57-.82-.86-1.8-.86-2.98,0-1.36.37-2.46,1.09-3.31.69-.79,1.58-1.18,2.68-1.18,1.18,0,2.09.41,2.72,1.24.59.77.89,1.82.89,3.16,0,.43-.15.65-.45.65h-5.37c.11.86.42,1.51.94,1.96.42.39.94.57,1.54.57s1.2-.17,1.72-.5c.05-.03.1-.05.15-.05.09,0,.16.05.21.13l.33.57h0ZM165.59,494.47h4.37c-.09-.89-.36-1.57-.8-2.02-.37-.38-.82-.55-1.36-.55-.6,0-1.11.25-1.51.77-.37.45-.59,1.06-.7,1.81h0Z"/>
      <path class="st0" d="M174.78,491.55c.45-.58,1.08-.87,1.87-.87.32,0,.63.08.93.24.3.16.44.31.44.48,0,.08-.03.14-.09.22l-.52.62c-.08.08-.16.12-.25.12-.04,0-.08,0-.13-.03,0,0-.03-.02-.05-.03-.26-.14-.51-.22-.74-.22-.42,0-.78.17-1.05.5-.27.31-.4.71-.4,1.19v5.4c0,.08-.03.15-.08.2s-.11.08-.2.08h-1.02c-.08,0-.15-.03-.2-.08s-.08-.11-.08-.2v-8.13c0-.08.03-.15.08-.2s.11-.08.2-.08h1.02c.08,0,.15.03.2.08s.08.11.08.2v.53h0Z"/>
      <path class="st0" d="M186.63,490.7c.08,0,.13.03.19.08s.08.11.08.18v8.7c0,1.02-.39,1.8-1.17,2.31-.59.39-1.36.59-2.29.59-.42,0-.99-.09-1.69-.29-.72-.19-1.09-.4-1.09-.63,0-.03,0-.06.02-.09l.18-.48c.03-.09.08-.13.17-.13.05,0,.1,0,.17.03.71.31,1.4.47,2.09.47s1.17-.15,1.52-.45c.37-.31.55-.75.55-1.32v-1.18c-.61.73-1.41,1.1-2.39,1.1-1.21,0-2.18-.46-2.91-1.39-.65-.81-.97-1.8-.97-2.98,0-1.45.4-2.59,1.22-3.43.69-.71,1.53-1.05,2.54-1.05s1.88.38,2.51,1.12v-.87c0-.07.03-.13.08-.18s.12-.08.19-.08h1.02v-.02ZM185.35,494.55c-.09-.89-.38-1.58-.86-2.04-.39-.39-.87-.57-1.44-.57-.72,0-1.33.32-1.8.95-.43.58-.65,1.34-.65,2.28,0,1.06.27,1.88.82,2.46.43.46.97.7,1.61.7s1.2-.24,1.62-.7c.39-.44.63-1.05.71-1.84v-1.24h0Z"/>
      <path class="st0" d="M195.3,498.41s.05.09.05.15c0,.09-.04.17-.12.24-.67.55-1.51.83-2.54.83-1.27,0-2.27-.51-2.98-1.51-.57-.82-.86-1.8-.86-2.98,0-1.36.37-2.46,1.09-3.31.69-.79,1.58-1.18,2.68-1.18,1.18,0,2.09.41,2.72,1.24.59.77.89,1.82.89,3.16,0,.43-.15.65-.45.65h-5.37c.11.86.42,1.51.94,1.96.42.39.94.57,1.54.57s1.2-.17,1.72-.5c.05-.03.1-.05.15-.05.09,0,.16.05.21.13l.33.57h0ZM190.41,494.47h4.37c-.09-.89-.36-1.57-.8-2.02-.37-.38-.82-.55-1.36-.55-.6,0-1.11.25-1.51.77-.37.45-.59,1.06-.7,1.81h0Z"/>
      <path class="st0" d="M199.6,491.67c.52-.65,1.23-.97,2.14-.97.86,0,1.57.31,2.11.94.52.6.77,1.41.77,2.42v5.1c0,.08-.03.13-.08.19s-.11.08-.18.08h-1.02c-.17,0-.25-.09-.25-.27v-5.19c0-.67-.2-1.17-.59-1.49-.3-.26-.67-.39-1.09-.39-.53,0-.96.18-1.3.55-.33.34-.5.78-.5,1.3v5.23c0,.08-.03.15-.08.2s-.11.08-.2.08h-1.02c-.08,0-.15-.03-.2-.08s-.08-.11-.08-.2v-8.2c0-.17.09-.25.27-.25h1.02c.18,0,.27.08.27.25v.71h0Z"/>
      <path class="st0" d="M213.48,498.17s.05.1.05.17c0,.09-.05.17-.14.24-.84.69-1.8,1.02-2.89,1.02-1.25,0-2.26-.43-3.01-1.3-.71-.8-1.06-1.83-1.06-3.11,0-1.44.45-2.59,1.34-3.43.72-.69,1.59-1.02,2.59-1.02.72,0,1.4.19,2.03.56.55.33.99.78,1.3,1.34.05.06.08.12.08.18,0,.09-.04.17-.12.23l-.62.48s-.08.03-.12.03c-.11,0-.21-.05-.3-.15-.74-.86-1.49-1.3-2.26-1.3s-1.32.3-1.77.9c-.4.55-.6,1.25-.6,2.09,0,1.05.28,1.87.85,2.43.46.46,1.04.7,1.76.7s1.39-.23,2.09-.67c.11-.08.21-.12.29-.12.06,0,.1.03.13.08l.39.65h0Z"/>
      <path class="st0" d="M218.8,499.92c-.36.99-.71,1.66-1.09,2.04-.39.39-.87.59-1.47.59-.3,0-.67-.06-1.1-.18-.46-.14-.7-.3-.7-.48,0-.03,0-.06.02-.09l.22-.53c.04-.12.12-.18.24-.18.03,0,.06,0,.09.02.39.16.71.24,1,.24.66,0,1.13-.45,1.41-1.34l.22-.65-2.96-8.01s-.02-.06-.02-.09c0-.16.08-.24.24-.24h1.15c.11,0,.19.06.24.17l2.03,5.89,1.74-5.88c.04-.12.12-.18.25-.18h1.1c.16,0,.24.08.24.24,0,.03,0,.06-.02.08l-2.83,8.6-.02-.03Z"/>
      <path class="st0" d="M230.8,499.57c-.93,0-1.78-.24-2.54-.72-.73-.47-1.32-1.12-1.74-1.94-.43-.85-.65-1.78-.65-2.78,0-1.07.22-2.04.65-2.91.42-.85,1.01-1.51,1.76-2.01.75-.49,1.61-.74,2.56-.74s1.8.25,2.59.75c.73.48,1.32,1.16,1.74,2.01.43.87.65,1.84.65,2.9s-.22,1.95-.65,2.78c-.42.82-1.01,1.46-1.76,1.94-.78.48-1.65.72-2.6.72h0ZM230.81,498c.55,0,1.08-.16,1.57-.47.53-.32.94-.76,1.25-1.33.33-.63.5-1.33.5-2.13,0-1.32-.39-2.36-1.18-3.13-.61-.6-1.33-.9-2.12-.9-.55,0-1.06.16-1.56.47-.53.33-.94.79-1.25,1.37-.33.65-.5,1.38-.5,2.21,0,1.27.39,2.28,1.18,3.04.6.58,1.31.87,2.1.87h0Z"/>
      <path class="st0" d="M239.33,491.85c.66-.75,1.49-1.14,2.53-1.14,1.17,0,2.11.45,2.81,1.36.64.83.95,1.87.95,3.13,0,1.35-.41,2.44-1.24,3.28-.71.72-1.6,1.09-2.64,1.09-.99,0-1.79-.38-2.41-1.14v3.8c0,.08-.03.15-.08.2s-.11.08-.2.08h-1.02c-.08,0-.15-.03-.2-.08s-.08-.11-.08-.2v-11.26c0-.08.03-.15.08-.2s.11-.08.2-.08h1.02c.08,0,.15.03.2.08s.08.11.08.2v.87ZM239.33,495.62c.08.96.36,1.67.86,2.16.39.38.88.55,1.49.55.73,0,1.33-.3,1.79-.9.42-.57.64-1.33.64-2.26,0-1.07-.27-1.91-.83-2.51-.45-.48-1-.72-1.62-.72-.68,0-1.22.26-1.64.79-.39.5-.62,1.17-.68,2.01v.87h-.02Z"/>
      <path class="st0" d="M253.56,498.41s.05.09.05.15c0,.09-.04.17-.12.24-.67.55-1.51.83-2.54.83-1.27,0-2.27-.51-2.98-1.51-.57-.82-.86-1.8-.86-2.98,0-1.36.37-2.46,1.09-3.31.69-.79,1.58-1.18,2.68-1.18,1.18,0,2.09.41,2.72,1.24.59.77.89,1.82.89,3.16,0,.43-.15.65-.45.65h-5.37c.11.86.42,1.51.94,1.96.42.39.94.57,1.54.57s1.2-.17,1.72-.5c.05-.03.1-.05.15-.05.09,0,.16.05.21.13l.33.57h0ZM248.66,494.47h4.37c-.09-.89-.36-1.57-.8-2.02-.37-.38-.82-.55-1.36-.55-.6,0-1.11.25-1.51.77-.37.45-.59,1.06-.7,1.81h0Z"/>
      <path class="st0" d="M257.86,491.55c.45-.58,1.08-.87,1.87-.87.32,0,.63.08.93.24.3.16.44.31.44.48,0,.08-.03.14-.09.22l-.52.62c-.08.08-.16.12-.25.12-.04,0-.08,0-.13-.03,0,0-.03-.02-.05-.03-.26-.14-.51-.22-.74-.22-.42,0-.78.17-1.05.5-.27.31-.4.71-.4,1.19v5.4c0,.08-.03.15-.08.2s-.11.08-.2.08h-1.02c-.08,0-.15-.03-.2-.08s-.08-.11-.08-.2v-8.13c0-.08.03-.15.08-.2s.11-.08.2-.08h1.02c.08,0,.15.03.2.08s.08.11.08.2v.53h0Z"/>
      <path class="st0" d="M269.74,490.7c.08,0,.13.03.18.08s.08.11.08.18v8.21c0,.08-.03.13-.08.18s-.11.08-.18.08h-1.02c-.17,0-.25-.08-.25-.25v-.71c-.61.77-1.42,1.15-2.42,1.15-1.21,0-2.18-.46-2.91-1.39-.65-.81-.97-1.8-.97-2.98,0-1.46.4-2.61,1.22-3.46.69-.71,1.53-1.05,2.54-1.05s1.9.39,2.54,1.15v-.9c0-.17.08-.25.25-.25h1.02ZM266.09,498.38c.74,0,1.33-.29,1.76-.87.4-.55.6-1.32.6-2.29,0-1.12-.25-1.97-.77-2.56-.41-.47-.93-.71-1.56-.71-.73,0-1.33.32-1.8.95-.43.59-.65,1.36-.65,2.31,0,1.07.27,1.9.82,2.48.43.46.97.7,1.61.7h0Z"/>
      <path class="st0" d="M276.92,498.82s.02.07.02.1c0,.19-.29.37-.87.52-.4.1-.72.15-.95.15-.63,0-1.13-.21-1.47-.62-.29-.37-.44-.86-.44-1.49v-5.23h-.95c-.08,0-.15-.03-.2-.08s-.08-.11-.08-.2v-.89c0-.08.03-.13.08-.18s.12-.08.19-.08h.95v-2.45c0-.07.03-.13.08-.18s.12-.08.19-.08h1.02c.08,0,.13.03.19.08s.08.11.08.18v2.45h1.56c.08,0,.13.03.19.08s.08.11.08.18v.89c0,.08-.03.15-.08.2s-.11.08-.2.08h-1.56v4.92c0,.38.06.64.18.81.11.17.3.24.55.24.24,0,.54-.07.9-.21.04-.02.08-.03.12-.03.08,0,.12.05.15.15l.25.68h0Z"/>
      <path class="st0" d="M278.89,499.42c-.08,0-.15-.03-.2-.08s-.08-.11-.08-.2v-8.2c0-.17.09-.25.27-.25h1.02c.18,0,.27.08.27.25v8.2c0,.08-.03.15-.08.2s-.11.08-.2.08h-1.02ZM278.92,489.84c-.08,0-.13-.02-.18-.07-.05-.05-.08-.1-.08-.18v-.98c0-.07.03-.13.08-.17.05-.05.11-.07.18-.07h.97c.16,0,.24.08.24.24v.98c0,.16-.08.24-.24.24h-.97Z"/>
      <path class="st0" d="M286.2,499.6c-1.28,0-2.3-.47-3.06-1.41-.66-.81-.99-1.8-.99-2.99,0-1.4.42-2.53,1.27-3.38.74-.74,1.68-1.12,2.79-1.12,1.29,0,2.32.48,3.08,1.45.66.83.99,1.84.99,3.06,0,1.37-.42,2.47-1.27,3.31-.74.72-1.68,1.09-2.81,1.09ZM286.21,498.23c.79,0,1.39-.34,1.81-1.02.34-.55.52-1.23.52-2.04,0-.94-.23-1.7-.68-2.28-.42-.54-.97-.8-1.65-.8-.79,0-1.39.35-1.81,1.04-.36.55-.53,1.24-.53,2.06,0,.94.23,1.69.68,2.26.41.54.97.8,1.66.8h0Z"/>
      <path class="st0" d="M293.81,491.67c.52-.65,1.23-.97,2.14-.97.86,0,1.57.31,2.11.94.52.6.77,1.41.77,2.42v5.1c0,.08-.03.13-.08.19s-.11.08-.18.08h-1.02c-.17,0-.25-.09-.25-.27v-5.19c0-.67-.2-1.17-.59-1.49-.3-.26-.67-.39-1.09-.39-.53,0-.96.18-1.3.55-.33.34-.5.78-.5,1.3v5.23c0,.08-.03.15-.08.2s-.11.08-.2.08h-1.02c-.08,0-.15-.03-.2-.08s-.08-.11-.08-.2v-8.2c0-.17.09-.25.27-.25h1.02c.18,0,.27.08.27.25v.71h0Z"/>
      <path class="st0" d="M305.37,492.36c-.05.08-.12.12-.22.12-.06,0-.11-.02-.17-.05-.44-.3-.94-.45-1.49-.45-.89,0-1.34.37-1.34,1.09,0,.27.11.51.33.71s.65.44,1.31.73l.03.02s.02.02.03.02c.87.39,1.49.71,1.81,1,.49.43.74.95.74,1.54,0,.87-.35,1.56-1.04,2.04-.56.39-1.25.57-2.07.57-1.15,0-2.03-.29-2.63-.87-.05-.06-.08-.13-.08-.21,0-.05,0-.09.03-.13l.27-.47c.09-.15.2-.23.32-.23.06,0,.11.02.17.05.46.28,1.02.42,1.66.42,1.1,0,1.65-.39,1.65-1.17,0-.24-.1-.42-.31-.57-.21-.15-.61-.35-1.21-.59l-.03-.02c-.86-.34-1.48-.68-1.83-1-.51-.44-.75-1.01-.75-1.69,0-.84.32-1.49.97-1.96.54-.39,1.18-.57,1.95-.57.42,0,.91.09,1.47.28.59.2.89.44.89.71,0,.06-.02.12-.06.18l-.38.52v-.02Z"/>
      <path class="st0" d="M318.95,497.7s.06.1.06.17c0,.08-.04.15-.1.2-1.05,1.01-2.23,1.51-3.53,1.51-.84,0-1.61-.24-2.31-.7-.71-.46-1.25-1.1-1.65-1.91-.42-.85-.64-1.8-.64-2.84,0-1.79.55-3.21,1.64-4.28.88-.86,1.93-1.31,3.13-1.32,1.22-.02,2.27.46,3.14,1.45.04.05.06.1.06.17,0,.08-.03.15-.09.21l-.55.48c-.08.06-.14.09-.22.09-.09,0-.17-.04-.23-.1-.55-.56-1.24-.85-2.06-.85-.95,0-1.73.42-2.34,1.27-.55.75-.83,1.7-.83,2.83,0,1.34.36,2.39,1.06,3.13.57.6,1.29.9,2.13.9.93,0,1.79-.37,2.57-1.1.05-.03.1-.05.15-.05.09,0,.16.04.21.1l.4.62h0Z"/>
      <path class="st0" d="M326.97,498.41s.05.09.05.15c0,.09-.04.17-.12.24-.67.55-1.51.83-2.54.83-1.27,0-2.27-.51-2.98-1.51-.57-.82-.86-1.8-.86-2.98,0-1.36.37-2.46,1.09-3.31.69-.79,1.58-1.18,2.68-1.18,1.18,0,2.09.41,2.72,1.24.59.77.89,1.82.89,3.16,0,.43-.15.65-.45.65h-5.37c.11.86.42,1.51.94,1.96.42.39.94.57,1.54.57s1.2-.17,1.72-.5c.05-.03.1-.05.15-.05.09,0,.16.05.21.13l.33.57h0ZM322.07,494.47h4.37c-.09-.89-.36-1.57-.8-2.02-.37-.38-.82-.55-1.36-.55-.6,0-1.11.25-1.51.77-.37.45-.59,1.06-.7,1.81h0Z"/>
      <path class="st0" d="M331.26,491.67c.52-.65,1.23-.97,2.14-.97.86,0,1.57.31,2.11.94.52.6.77,1.41.77,2.42v5.1c0,.08-.03.13-.08.19s-.11.08-.18.08h-1.02c-.17,0-.25-.09-.25-.27v-5.19c0-.67-.2-1.17-.59-1.49-.3-.26-.67-.39-1.09-.39-.53,0-.96.18-1.3.55-.33.34-.5.78-.5,1.3v5.23c0,.08-.03.15-.08.2s-.11.08-.2.08h-1.02c-.08,0-.15-.03-.2-.08s-.08-.11-.08-.2v-8.2c0-.17.09-.25.27-.25h1.02c.18,0,.27.08.27.25v.71h0Z"/>
      <path class="st0" d="M343.05,498.82s.02.07.02.1c0,.19-.29.37-.87.52-.4.1-.72.15-.95.15-.63,0-1.13-.21-1.47-.62-.29-.37-.44-.86-.44-1.49v-5.23h-.95c-.08,0-.15-.03-.2-.08s-.08-.11-.08-.2v-.89c0-.08.03-.13.08-.18s.12-.08.19-.08h.95v-2.45c0-.07.03-.13.08-.18s.12-.08.19-.08h1.02c.08,0,.13.03.19.08s.08.11.08.18v2.45h1.56c.08,0,.13.03.19.08s.08.11.08.18v.89c0,.08-.03.15-.08.2s-.11.08-.2.08h-1.56v4.92c0,.38.06.64.18.81.11.17.3.24.55.24.24,0,.54-.07.9-.21.04-.02.08-.03.12-.03.08,0,.12.05.15.15l.25.68h0Z"/>
      <path class="st0" d="M350.72,498.41s.05.09.05.15c0,.09-.04.17-.12.24-.67.55-1.51.83-2.54.83-1.27,0-2.27-.51-2.98-1.51-.57-.82-.86-1.8-.86-2.98,0-1.36.37-2.46,1.09-3.31.69-.79,1.58-1.18,2.68-1.18,1.18,0,2.09.41,2.72,1.24.59.77.89,1.82.89,3.16,0,.43-.15.65-.45.65h-5.37c.11.86.42,1.51.94,1.96.42.39.94.57,1.54.57s1.2-.17,1.72-.5c.05-.03.1-.05.15-.05.09,0,.16.05.21.13l.33.57h0ZM345.82,494.47h4.37c-.09-.89-.36-1.57-.8-2.02-.37-.38-.82-.55-1.36-.55-.6,0-1.11.25-1.51.77-.37.45-.59,1.06-.7,1.81h0Z"/>
      <path class="st0" d="M355.01,491.55c.45-.58,1.08-.87,1.87-.87.32,0,.63.08.93.24.3.16.44.31.44.48,0,.08-.03.14-.09.22l-.52.62c-.08.08-.16.12-.25.12-.04,0-.08,0-.13-.03,0,0-.03-.02-.05-.03-.26-.14-.51-.22-.74-.22-.42,0-.78.17-1.05.5-.27.31-.4.71-.4,1.19v5.4c0,.08-.03.15-.08.2s-.11.08-.2.08h-1.02c-.08,0-.15-.03-.2-.08s-.08-.11-.08-.2v-8.13c0-.08.03-.15.08-.2s.11-.08.2-.08h1.02c.08,0,.15.03.2.08s.08.11.08.2v.53h0Z"/>
    </g>
  </g>
  <line class="st0" x1="357.43" y1="482.36" x2="24" y2="482.36"/>
  <g>
    <path class="st0" d="M63.18,439.23l-24.86-40.47v42.42c0,1.33-1.13,2.36-2.36,2.36h-9.45c-1.33,0-2.36-1.02-2.36-2.36v-64.5c0-3.9,1.96-7.09,5.86-7.09,2.88,0,5.65.41,8.73,5.34l25.27,40.57v-43.14c0-1.23,1.02-2.26,2.26-2.26h9.55c1.23,0,2.26,1.02,2.26,2.26v65.12c0,3.9-3.29,7.09-7.09,7.09-2.05,0-4.82-.82-7.8-5.34h0Z"/>
    <path class="st0" d="M150.48,372.37v68.81c0,1.33-1.02,2.36-2.36,2.36h-9.45c-1.23,0-2.36-1.02-2.36-2.36v-29.17h-27.63v29.17c0,1.33-1.13,2.36-2.36,2.36h-9.45c-1.33,0-2.36-1.02-2.36-2.36v-68.81c0-1.23,1.02-2.26,2.36-2.26h9.45c1.23,0,2.36,1.02,2.36,2.26v26.71h27.63v-26.71c0-1.23,1.13-2.26,2.36-2.26h9.45c1.33,0,2.36,1.02,2.36,2.26h0Z"/>
    <path class="st0" d="M179.75,383.05v16.23h24.86c1.23,0,2.26,1.13,2.26,2.36v7.8c0,1.23-1.02,2.36-2.26,2.36h-24.86v18.79h29.68c1.33,0,2.36,1.02,2.36,2.26v8.32c0,1.33-1.02,2.36-2.36,2.36h-35.43c-3.8,0-7.09-3.19-7.09-7.09v-59.26c0-3.9,3.29-7.09,7.09-7.09h35.43c1.33,0,2.36,1.02,2.36,2.26v8.42c0,1.23-1.02,2.26-2.36,2.26h-29.68v.03Z"/>
    <path class="st0" d="M302.9,407.6c0-24.04,15.92-37.7,33.18-38,7.19-.1,14.18,2.36,20.13,8.53.82.92.92,2.36-.1,3.29l-5.34,4.73c-1.65,1.44-3.08,1.13-4.11.1-2.77-2.67-6.78-3.08-10.27-3.08-10.07,0-18.28,9.34-18.28,24.13,0,16.43,8.32,23.93,18.9,23.93,4.21,0,9.14-1.54,14.38-5.24,1.23-.62,2.67-.21,3.29.82l3.59,6.26c.62,1.23.21,2.77-.82,3.29-8.42,6.47-16.43,8.22-23.11,8.22-17.05,0-31.43-14.37-31.43-36.97h0Z"/>
  </g>
</svg>